<svg xmlns="http://www.w3.org/2000/svg" width="22" height="22" fill="none"><circle cx="11" cy="11" r="11" fill="#40AE36"/><path fill="#FFF" fill-rule="evenodd" d="M6.501 5.985A.824.824 0 0 0 5.69 5.3H4.524l-.094.008a.524.524 0 0 0 .094 1.04h.63c.2 0 .372.145.406.343l1.22 7.128c.067.395.41.685.811.685h7.81c.408 0 .755-.3.814-.704l.776-5.246a.824.824 0 0 0-.815-.945h-9.05a.41.41 0 0 1-.406-.342zm8.939 2.673H7.447a.41.41 0 0 0-.412.412l.006.07.68 3.973a.41.41 0 0 0 .405.342h6.727c.205 0 .378-.15.408-.352l.587-3.973a.41.41 0 0 0-.348-.467zM8.5 17.2q.089 0 .176-.017t.169-.051q.081-.034.155-.084.074-.049.136-.111.063-.063.112-.137.05-.074.084-.155.034-.082.05-.17.018-.086.018-.175 0-.088-.017-.175t-.051-.17-.084-.155-.112-.136T9 15.552t-.155-.083-.17-.052T8.5 15.4t-.175.017q-.087.018-.17.052-.081.034-.155.083t-.136.112q-.063.062-.112.136-.05.074-.083.156-.034.082-.052.169T7.6 16.3t.017.176.052.169q.034.081.083.155t.112.137.136.111.156.084.169.05.175.018m6 0q.089 0 .176-.017t.168-.051.156-.084.136-.111.112-.137q.05-.074.084-.155.034-.082.05-.17.018-.086.018-.175 0-.088-.017-.175t-.051-.17-.084-.155-.111-.136-.137-.112-.155-.083-.17-.052-.175-.017-.175.017q-.087.018-.17.052-.081.034-.155.083t-.136.112q-.063.062-.112.136-.05.074-.083.156-.034.082-.052.169t-.017.175.017.176.052.169q.034.081.083.155t.112.137.136.111.156.084.168.05q.088.018.176.018"/></svg>