<svg xmlns="http://www.w3.org/2000/svg" xmlns:xlink="http://www.w3.org/1999/xlink" fill="none" version="1.1" width="24" height="24" viewBox="0 0 24 24"><g><g><path d="M9.42857,12.8571C9.42857,11.4,10.5429,10.2857,12,10.2857C13.4571,10.2857,14.5714,11.4,14.5714,12.8571C14.5714,14.3143,13.4571,15.4286,12,15.4286C10.5429,15.4286,9.42857,14.3143,9.42857,12.8571C9.42857,12.8571,9.42857,12.8571,9.42857,12.8571ZM12,24C5.4,24,0,18.6,0,12C0,5.4,5.4,0,12,0C13.2,0,14.3143,0.171428,15.4286,0.514286C15.4286,0.514286,15.4286,9.08571,15.4286,9.08571C14.4857,8.22857,13.2857,7.71429,12,7.71429C9.17143,7.71429,6.85714,10.0286,6.85714,12.8571C6.85714,15.6857,9.17143,18,12,18C14.8286,18,17.1429,15.6857,17.1429,12.8571C17.1429,12.8571,17.1429,1.2,17.1429,1.2C21.1714,3.08571,24,7.28571,24,12C24,18.6,18.6,24,12,24C12,24,12,24,12,24Z" fill="#ffffff" fill-opacity="1"/></g></g></svg>