<svg xmlns="http://www.w3.org/2000/svg" width="34.438" height="32" class="icon" viewBox="0 0 1102 1024"><path fill="#1E2330" d="m701.598 511.842 366.119-366.119a57.974 57.974 0 0 0 0-82.077l-41.039-41.04a57.974 57.974 0 0 0-82.077 0l-366.12 366.12L212.283 22.528a57.974 57.974 0 0 0-82.077 0L89.088 63.646a57.974 57.974 0 0 0 0 82.077l366.12 366.12-366.12 366.119a58.13 58.13 0 0 0 0 82.156l41.039 41.039a57.974 57.974 0 0 0 82.077 0l366.12-366.12 366.12 366.12a57.974 57.974 0 0 0 82.077 0l41.038-41.039a58.13 58.13 0 0 0 0-82.156z"/></svg>