<svg xmlns="http://www.w3.org/2000/svg" width="19.5" height="17.266"><path fill-rule="evenodd" d="m9.638 1.098.111.08.11-.08a6.16 6.16 0 0 1 7.837.674 6.047 6.047 0 0 1 .002 8.617l-6.211 6.15a2.44 2.44 0 0 1-1.738.727 2.43 2.43 0 0 1-1.732-.722l-6.216-6.16a6.047 6.047 0 0 1 0-8.611 6.16 6.16 0 0 1 7.837-.675M18 6.081a4.55 4.55 0 0 0-1.356-3.24 4.66 4.66 0 0 0-6.393-.142l-.502.453-.502-.453a4.66 4.66 0 0 0-6.393.142 4.547 4.547 0 0 0 .002 6.477l6.224 6.168a.936.936 0 0 0 1.345-.008l6.218-6.156A4.55 4.55 0 0 0 18 6.082"/></svg>