<svg xmlns="http://www.w3.org/2000/svg" width="17.928" height="18.8"><path fill-rule="evenodd" d="M9.23.004 8.964 0A8.947 8.947 0 0 0 .018 8.948v.598Q0 9.696 0 9.852v2.715a2.714 2.714 0 0 0 5.429 0V9.852a2.714 2.714 0 0 0-3.614-2.56 7.34 7.34 0 0 1 6.908-5.679l.242-.003a7.34 7.34 0 0 1 7.152 5.683 2.714 2.714 0 0 0-3.617 2.56v2.714c0 1.2.78 2.22 1.862 2.577a2.92 2.92 0 0 1-2.786 2.047H9.87l-.1-.094-.006-.108a.805.805 0 0 0-1.603.101v.81a.9.9 0 0 0 .9.9h2.515a4.53 4.53 0 0 0 4.445-3.665l-.004.025a2.715 2.715 0 0 0 1.912-2.593V9.852q0-.14-.015-.279l-.001-.625A8.95 8.95 0 0 0 9.229.004M2.713 8.638c-.628 0-1.146.478-1.208 1.09l-.006.124v2.715a1.214 1.214 0 0 0 2.422.124l.007-.124V9.852a1.214 1.214 0 0 0-1.215-1.214m12.5 0c-.628 0-1.146.478-1.208 1.09L14 9.852v2.715a1.214 1.214 0 0 0 2.422.124l.007-.124V9.852a1.214 1.214 0 0 0-1.215-1.214"/></svg>