<svg xmlns="http://www.w3.org/2000/svg" width="32" height="32" class="icon" viewBox="0 0 1024 1024"><path d="m622.336 214.016 169.728 169.792 88.576-88.576a53.89 53.89 0 0 0 0-76.224l-93.568-93.504a53.824 53.824 0 0 0-76.16 0zM261.632 914.24l484.736-484.736-169.792-169.728-481.536 481.6a10.56 10.56 0 0 0-3.2 7.552v154.56a10.75 10.75 0 0 0 10.752 10.752zM665.216 79.744a118.464 118.464 0 0 1 167.552 0l93.568 93.568a118.53 118.53 0 0 1 0 167.616L353.024 914.24h611.392a32.32 32.32 0 1 1 0 64.64H102.592A75.39 75.39 0 0 1 27.2 903.488v-154.56a75.52 75.52 0 0 1 22.08-53.248z"/></svg>