<svg xmlns="http://www.w3.org/2000/svg" width="109" height="125" fill="none"><path fill="#C6DCD5" d="M101.574 125H13.426C9.325 125 6 121.665 6 117.551V10.449C6 6.335 9.325 3 13.427 3h88.146C105.676 3 109 6.335 109 10.45v107.1c0 4.114-3.325 7.449-7.427 7.449"/><path fill="#C6DCD5" d="M6 100v17.876C6 121.811 9.325 125 13.427 125h88.146c4.102 0 7.427-3.19 7.427-7.124V100z"/><path fill="#FFF" d="M97.291 119H17.71c-3.705 0-6.709-3.012-6.709-6.727V14.727C11 11.012 14.004 8 17.709 8H97.29c3.705 0 6.709 3.012 6.709 6.727v97.546c0 3.715-3.004 6.727-6.709 6.727"/><path fill="#DAE8E3" d="M86.309 90H6.71C3.004 90 0 93.045 0 96.801v8.966C0 113.075 5.846 119 13.057 119H98c-2.751 0-4.982-2.26-4.982-5.05V96.802c0-3.756-3.003-6.801-6.709-6.801"/><path fill="#EBF5F3" d="M22 45h71v4H22zm0 16h71v4H22zm0 15h56v4H22zm45.35-50h-20.7C41.88 26 38 21.947 38 16.966V13h3.931v3.966c0 2.717 2.117 4.928 4.719 4.928h20.7c2.602 0 4.719-2.21 4.719-4.928V13H76v3.966C76 21.947 72.12 26 67.35 26"/><path fill="#A2C3B8" d="M74.746 14H40.253C37.905 14 36 12.106 36 9.769V4.23C36 1.895 37.905 0 40.253 0h34.493C77.096 0 79 1.895 79 4.231V9.77c0 2.336-1.905 4.23-4.254 4.23"/></svg>