<svg xmlns="http://www.w3.org/2000/svg" xmlns:xlink="http://www.w3.org/1999/xlink" fill="none" version="1.1" width="9.333330154418945" height="9.333330154418945" viewBox="0 0 9.333330154418945 9.333330154418945"><g><path d="M9.08005,1.53602C9.07136,1.54796,9.05059,1.5599,9.03968,1.56967C9.03968,1.56967,6.40231,4.17058,6.40231,4.17058C6.40231,4.17058,6.40231,8.44211,6.40231,8.44211C6.40231,8.93386,6.02356,9.33333,5.52796,9.33333C5.29872,9.33333,5.10441,9.24647,4.93739,9.0902C4.92538,9.08255,4.91337,9.07281,4.90355,9.06301C4.90355,9.06301,4.16999,8.34225,4.16999,8.34225C4.07938,8.25323,4.07829,8.10886,4.1678,8.01768C4.1678,8.01768,4.48,7.70507,4.48,7.70507C4.56843,7.61926,4.71033,7.61821,4.79985,7.70396C4.79985,7.70396,5.4701,8.39434,5.4701,8.39434C5.47993,8.40303,5.48429,8.41172,5.4963,8.42257C5.48975,6.58916,5.48757,4.40614,5.48757,3.96976C5.48757,3.96976,5.48757,3.89269,5.48757,3.89269C5.48757,3.8319,5.54215,3.77002,5.58581,3.72769C5.58581,3.72769,8.40437,0.948745,8.40437,0.948745C8.41201,0.93898,8.42076,0.911837,8.42945,0.911837C8.42945,0.911837,0.908232,0.911837,0.908232,0.911837C0.91697,0.911837,0.915874,0.937895,0.922425,0.94766C0.922425,0.94766,3.70059,3.73203,3.70059,3.73203C3.74425,3.77545,3.74862,3.83298,3.74862,3.89377C3.74862,3.89377,3.74862,5.72071,3.74862,5.72071C3.74862,5.72288,3.75517,5.72614,3.75517,5.72831C3.74971,5.97578,3.5554,6.17231,3.31088,6.17231C3.06199,6.17231,2.83275,5.97036,2.83275,5.72288C2.83275,5.72288,2.83275,4.17058,2.83275,4.17058C2.83275,4.17058,0.246716,1.56532,0.246716,1.56532C0.23689,1.55556,0.253265,1.53927,0.245623,1.52841C0.087339,1.36016,-0.00108162,1.13871,0.00000998869,0.908582C0.00000998869,0.416841,0.401725,0,0.895136,0C0.895136,0,8.44369,0,8.44369,0C8.68274,0,8.90761,0.109638,9.07678,0.277894C9.24601,0.44615,9.33333,0.678451,9.33333,0.916183C9.33117,1.14523,9.23836,1.36993,9.08005,1.53602C9.08005,1.53602,9.08005,1.53602,9.08005,1.53602C9.08005,1.53602,9.08005,1.53602,9.08005,1.53602ZM3.34363,6.35466C3.61872,6.3644,3.83376,6.59347,3.82394,6.867C3.81521,7.12757,3.60453,7.33594,3.34363,7.34463C3.06854,7.33489,2.8535,7.10581,2.86332,6.83229C2.87205,6.57282,3.08164,6.36335,3.34363,6.35466C3.34363,6.35466,3.34363,6.35466,3.34363,6.35466Z" fill="#FFFFFF" fill-opacity="1"/></g></svg>