<svg xmlns="http://www.w3.org/2000/svg" xmlns:xlink="http://www.w3.org/1999/xlink" fill="none" version="1.1" width="23.9990234375" height="24" viewBox="0 0 23.9990234375 24"><g><path d="M23.999,12.0005C23.999,5.37228,18.6267,0,11.9995,0C5.37228,0,0,5.37228,0,12.0005C0,18.6277,5.37228,24,11.9995,24C18.6267,24,23.999,18.6277,23.999,12.0005ZM6.33868,12.0005C6.33868,8.87861,8.87762,6.34061,11.9995,6.34061C15.1214,6.34061,17.6585,8.87861,17.6584,12.0005C17.6584,15.1194,15.1214,17.6604,11.9995,17.6604C8.87764,17.6604,6.33868,15.1195,6.33868,12.0005ZM8.02747,12.0005C8.02747,9.80722,9.80531,8.02844,11.9995,8.02844C14.1918,8.02844,15.9716,9.8072,15.9716,12.0005C15.9716,14.1938,14.1918,15.9726,11.9995,15.9726C9.80531,15.9726,8.02747,14.1938,8.02747,12.0005ZM10.5993,12.0005C10.5993,12.7732,11.2268,13.4007,11.9995,13.4007C12.7723,13.4007,13.3997,12.7732,13.3997,12.0005C13.3997,11.2268,12.7722,10.6003,11.9995,10.6003C11.2268,10.6003,10.5993,11.2268,10.5993,12.0005Z" fill-rule="evenodd" fill="#494c52" fill-opacity="1"/></g></svg>