<svg xmlns="http://www.w3.org/2000/svg" width="24.5" height="24"><path d="M12.25 0C5.485 0 0 5.485 0 12.25c0 2.438.769 3.846 2.41 4.193l.232.043c.923.156 1.283.102 4.02-.607l.72-.187c2.018-.526 3.402-.767 4.868-.767 1.4 0 2.724.22 4.597.697l1.758.454c2.143.544 2.455.551 3.37.39 1.72-.305 2.525-1.721 2.525-4.216C24.5 5.485 19.015 0 12.25 0"/><path fill="#FFF" fill-rule="evenodd" d="M12.25 7.5q.184 0 .368-.018.183-.018.364-.054.18-.036.357-.09.176-.053.346-.123t.333-.158.315-.189.296-.22.273-.246.247-.273.219-.296.19-.315.157-.333.124-.346q.053-.177.089-.357.036-.181.054-.364Q16 3.934 16 3.75t-.018-.368q-.018-.183-.054-.364-.036-.18-.09-.357-.053-.176-.123-.346t-.158-.333-.189-.315-.22-.296-.246-.273-.273-.247-.296-.219-.315-.19-.333-.157-.346-.124q-.177-.053-.357-.089-.181-.036-.364-.054Q12.434 0 12.25 0t-.368.018-.364.054-.357.09-.346.123-.333.158q-.162.087-.315.189-.154.102-.296.22-.142.116-.273.246-.13.13-.247.273-.117.142-.219.296-.102.153-.19.315-.086.163-.157.333-.07.17-.124.346-.053.177-.089.357-.036.181-.054.364-.018.184-.018.368t.018.368q.018.183.054.364.036.18.09.357.053.176.123.346t.158.333.189.315.22.296.246.273.273.247.296.219.315.19q.163.086.333.157.17.07.346.124.177.053.357.089.181.036.364.054.184.018.368.018m0-2q.086 0 .172-.008t.17-.026.166-.041.162-.058.155-.074.147-.088.138-.102.127-.116.116-.127.102-.138.088-.147.074-.155.058-.162.041-.167.026-.17T14 3.75t-.008-.172-.026-.17-.041-.166-.058-.162-.074-.155-.088-.147-.102-.138-.116-.127-.127-.116-.138-.102-.147-.088-.155-.074-.162-.058-.167-.041-.17-.026T12.25 2t-.172.008-.17.026-.166.041-.162.058-.155.074-.147.088-.138.102-.127.116-.116.127-.102.138-.088.147-.074.155-.058.162-.041.167-.026.17-.008.171.008.172.026.17.041.166.058.162.074.155.088.147.102.138.116.127.127.116.138.102.147.088.155.074.162.058.167.041.17.026.171.008"/><path d="M16 20.25q0 .184-.018.368-.018.183-.054.364-.036.18-.09.357-.053.176-.123.346t-.158.333-.189.315-.22.296-.246.273-.273.247-.296.219-.315.19-.333.157-.346.124q-.177.053-.357.089-.181.036-.364.054-.184.018-.368.018t-.368-.018-.364-.054-.357-.09-.346-.123-.333-.158q-.162-.087-.315-.189-.154-.102-.296-.22-.142-.116-.273-.246-.13-.13-.247-.273-.117-.142-.219-.296-.102-.153-.19-.315-.086-.163-.157-.333-.07-.17-.124-.346-.053-.177-.089-.357-.036-.181-.054-.364-.018-.184-.018-.368t.018-.368q.018-.183.054-.364.036-.18.09-.357.053-.176.123-.346t.158-.333.189-.315.22-.296.246-.273.273-.247.296-.219.315-.19q.163-.086.333-.157.17-.07.346-.124.177-.053.357-.089.181-.036.364-.054.184-.018.368-.018t.368.018.364.054.357.09.346.123.333.158q.162.087.315.189.154.102.296.22.142.116.273.246.13.13.247.273.117.142.219.296.102.153.19.315.086.163.157.333.07.17.124.346.053.177.089.357.036.181.054.364.018.184.018.368"/></svg>