<svg xmlns="http://www.w3.org/2000/svg" width="23.491" height="22.776"><path fill-rule="evenodd" d="M10.5 5.25q0 .129-.006.258-.007.128-.02.257-.012.128-.03.255-.02.128-.045.254-.025.127-.056.252-.032.125-.07.248-.037.123-.08.245-.043.121-.093.24-.049.12-.104.236t-.116.23-.127.224-.138.218q-.071.107-.148.21-.077.104-.159.204-.081.1-.168.195t-.178.186-.186.178-.195.168q-.1.082-.204.159t-.21.148-.218.138-.224.127-.23.116-.236.104-.24.093q-.122.043-.245.08t-.248.07-.252.056-.254.044q-.127.02-.255.032-.129.012-.257.019-.13.006-.258.006-.129 0-.258-.006-.128-.007-.257-.02-.128-.012-.255-.03-.128-.02-.254-.045-.127-.025-.252-.056-.125-.032-.248-.07-.123-.037-.245-.08-.121-.043-.24-.093-.12-.049-.236-.104t-.23-.116q-.113-.06-.224-.127-.11-.066-.218-.138-.107-.071-.21-.148-.104-.077-.204-.159-.1-.081-.195-.168t-.186-.178-.178-.186-.168-.195q-.082-.1-.159-.204t-.148-.21-.138-.218-.127-.224-.116-.23T.4 7.259t-.093-.24-.08-.245q-.038-.123-.07-.248Q.126 6.4.101 6.274T.057 6.02q-.02-.127-.032-.255-.012-.129-.019-.257Q0 5.378 0 5.25q0-.129.006-.258.007-.128.02-.257.012-.128.03-.255.02-.128.045-.254.025-.127.056-.252.032-.125.07-.248.036-.123.08-.245.043-.121.093-.24.049-.12.104-.236t.116-.23q.06-.113.127-.224.066-.11.138-.218.071-.107.148-.21.077-.104.159-.204.081-.1.168-.195t.178-.186.186-.178.195-.168q.1-.082.204-.159t.21-.148.218-.138.224-.127.23-.116T3.241.4t.24-.093.245-.08q.123-.038.248-.07.125-.031.252-.056.126-.025.254-.044.127-.02.255-.032.129-.012.257-.019Q5.122 0 5.25 0q.129 0 .258.006.128.007.257.02.128.012.255.03.128.02.254.045.127.025.252.056.125.032.248.07.123.036.245.08.121.043.24.093.12.049.236.104t.23.116.224.127.218.138q.107.071.21.148.104.077.204.159.1.081.195.168t.186.178.178.186.168.195q.082.1.159.204t.148.21.138.218.127.224.116.23.104.236.093.24q.043.122.08.245t.07.248.056.252.044.254q.02.127.032.255.012.129.019.257.006.13.006.258m6.25 5.25q.129 0 .258-.006.128-.007.257-.02.128-.012.255-.03.128-.02.254-.045.127-.025.252-.056.125-.032.248-.07.123-.037.245-.08.121-.043.24-.093.12-.049.236-.104t.23-.116q.113-.06.224-.127.11-.066.218-.138.107-.071.21-.148.104-.077.204-.159.1-.081.195-.168t.186-.178.178-.186.168-.195q.082-.1.159-.204t.148-.21.138-.218.127-.224q.06-.114.116-.23.055-.117.104-.236.05-.119.093-.24.043-.122.08-.245t.07-.248.056-.252.044-.254q.02-.127.032-.255.012-.129.019-.257.006-.13.006-.258 0-.129-.006-.258-.007-.128-.02-.257-.012-.128-.03-.255-.02-.128-.045-.254-.025-.127-.056-.252-.032-.125-.07-.248-.037-.123-.08-.245-.043-.121-.093-.24-.049-.12-.104-.236t-.116-.23q-.06-.113-.127-.224-.066-.11-.138-.218-.071-.107-.148-.21-.077-.104-.159-.204-.081-.1-.168-.195t-.178-.186-.186-.178-.195-.168q-.1-.082-.204-.159t-.21-.148-.218-.138-.224-.127-.23-.116T18.759.4t-.24-.093-.245-.08q-.123-.038-.248-.07-.125-.031-.252-.056-.126-.025-.254-.044-.127-.02-.255-.032-.129-.012-.257-.019Q16.878 0 16.75 0q-.129 0-.258.006-.128.007-.257.02-.128.012-.255.03-.128.02-.254.045-.127.025-.252.056-.125.032-.248.07-.123.036-.245.08-.121.043-.24.093-.12.049-.236.104t-.23.116-.224.127-.218.138q-.107.071-.21.148-.104.077-.204.159-.1.081-.195.168t-.186.178-.178.186-.168.195q-.082.1-.159.204t-.148.21-.138.218-.127.224q-.06.114-.116.23-.055.117-.104.236-.05.119-.093.24-.043.122-.08.245t-.07.248-.056.252-.044.254q-.02.127-.032.255-.012.129-.019.257-.006.13-.006.258 0 .129.006.258.007.128.02.257.012.128.03.255.02.128.045.254.025.127.056.252.032.125.07.248.037.123.08.245.043.121.093.24.049.12.104.236t.116.23.127.224.138.218q.071.107.148.21.077.104.159.204t.168.195.178.186.186.178.195.168.204.159.21.148.218.138.224.127.23.116.236.104q.119.05.24.093.122.043.245.08t.248.07.252.056.254.044q.127.02.255.032.129.012.257.019.13.006.258.006M8.5 5.25q0 .16-.016.319-.015.158-.046.315-.032.157-.078.31-.046.152-.107.3-.061.147-.137.288-.075.14-.164.274-.088.132-.19.256-.101.123-.214.236t-.236.214q-.124.102-.256.19-.133.089-.274.164-.14.076-.288.137-.148.06-.3.107-.153.046-.31.078-.157.03-.315.046-.16.016-.319.016-.16 0-.319-.016-.158-.015-.315-.046-.157-.032-.31-.078-.152-.046-.3-.107-.147-.061-.288-.137-.14-.075-.274-.164-.132-.088-.256-.19-.123-.101-.236-.214t-.214-.236q-.102-.124-.19-.256-.089-.133-.164-.274-.076-.14-.137-.288-.06-.148-.107-.3-.046-.153-.078-.31-.03-.157-.046-.315Q2 5.409 2 5.25q0-.16.016-.319.015-.158.046-.315.032-.157.078-.31.046-.152.107-.3.061-.147.137-.288.075-.14.164-.274.088-.132.19-.256.101-.123.214-.236t.236-.214q.124-.102.256-.19.133-.089.274-.164.14-.076.288-.137.148-.06.3-.107.153-.046.31-.078.157-.03.315-.046Q5.091 2 5.25 2q.16 0 .319.016.158.015.315.046.157.032.31.078.152.046.3.107.147.061.288.137.14.075.274.164.132.088.256.19.123.101.236.214t.214.236q.102.124.19.256.089.133.164.274.076.14.137.288.06.148.107.3.046.153.078.31.03.157.046.315.016.16.016.319m8.25 3.25q.16 0 .319-.016.158-.015.315-.046.157-.032.31-.078.152-.046.3-.107.147-.061.288-.137.14-.075.274-.164.132-.088.256-.19.123-.101.236-.214t.214-.236q.102-.124.19-.256.089-.133.164-.274.076-.14.137-.288.06-.148.107-.3.046-.153.078-.31.03-.157.046-.315.016-.16.016-.319 0-.16-.016-.319-.015-.158-.047-.315-.03-.157-.077-.31-.046-.152-.107-.3-.061-.147-.137-.288-.075-.14-.164-.274-.088-.132-.19-.256-.101-.123-.214-.236t-.236-.214-.256-.19-.274-.164q-.14-.076-.288-.137-.148-.06-.3-.107-.153-.046-.31-.078-.157-.03-.315-.046Q16.909 2 16.75 2q-.16 0-.319.016-.158.015-.315.046-.157.032-.31.078-.152.046-.3.107-.147.061-.288.137-.14.075-.274.164-.132.088-.256.19-.123.101-.236.214t-.214.236q-.102.124-.19.256-.089.133-.164.274-.075.14-.137.288-.06.148-.107.3-.046.153-.078.31-.03.157-.046.315-.016.16-.016.319 0 .16.016.319.015.158.046.315.032.157.078.31.046.152.107.3.062.147.137.288t.164.274q.088.132.19.256.101.123.214.236t.236.214.256.19.274.164q.14.076.288.137.148.06.3.107.153.046.31.078.157.03.315.046.16.016.319.016m-6.25 8.25q0 .129-.006.258-.007.128-.02.257-.012.128-.03.255-.02.128-.045.254-.025.127-.056.252-.032.125-.07.248-.037.123-.08.245-.043.121-.093.24-.049.12-.104.236t-.116.23q-.06.113-.127.224-.066.11-.138.218-.071.107-.148.21-.077.104-.159.204-.081.1-.168.195t-.178.186-.186.178-.195.168q-.1.082-.204.159t-.21.148-.218.138-.224.127q-.114.06-.23.116-.117.055-.236.104-.119.05-.24.093-.122.043-.245.08t-.248.07-.252.056-.254.044q-.127.02-.255.032-.129.012-.257.019-.13.006-.258.006-.129 0-.258-.006-.128-.007-.257-.02-.128-.012-.255-.03-.128-.02-.254-.045-.127-.025-.252-.056-.125-.032-.248-.07-.123-.037-.245-.08-.121-.043-.24-.093-.12-.049-.236-.104t-.23-.116q-.113-.06-.224-.127-.11-.066-.218-.138-.107-.071-.21-.148-.104-.077-.204-.159-.1-.081-.195-.168t-.186-.178-.178-.186-.168-.195q-.082-.1-.159-.204t-.148-.21-.138-.218-.127-.224-.116-.23-.104-.236-.093-.24-.08-.245q-.038-.123-.07-.248-.031-.125-.056-.252-.025-.126-.044-.254-.02-.127-.032-.255-.012-.129-.019-.257Q0 16.878 0 16.75q0-.129.006-.258.007-.128.02-.257.012-.128.03-.255.02-.128.045-.254.025-.127.056-.252.032-.125.07-.248.036-.123.08-.245.043-.121.093-.24.049-.12.104-.236t.116-.23.127-.224.138-.218q.071-.107.148-.21.077-.104.159-.204.081-.1.168-.195t.178-.186.186-.178.195-.168q.1-.082.204-.159t.21-.148.218-.138.224-.127q.114-.06.23-.116.117-.055.236-.104.119-.05.24-.093.122-.043.245-.08t.248-.07.252-.056.254-.044q.127-.02.255-.032.129-.012.257-.019.13-.006.258-.006.129 0 .258.006.128.007.257.02.128.012.255.03.128.02.254.045.127.025.252.056.125.032.248.07.123.037.245.08.121.043.24.093.12.049.236.104t.23.116.224.127.218.138q.107.071.21.148.104.077.204.159t.195.168.186.178.178.186.168.195.159.204.148.21.138.218.127.224.116.23.104.236q.05.119.093.24.043.122.08.245t.07.248.056.252.044.254q.02.127.032.255.012.129.019.257.006.13.006.258m6.25-5.25a5.25 5.25 0 0 1 4.569 7.838l1.85 1.701a1 1 0 0 1-1.288 1.528l-.066-.055-1.798-1.652a5.25 5.25 0 1 1-3.267-9.36M8.5 16.75q0 .16-.016.319-.015.158-.046.315-.032.157-.078.31-.046.152-.107.3-.061.147-.137.288-.075.14-.164.274-.088.132-.19.256-.101.123-.214.236t-.236.214q-.124.102-.256.19-.133.089-.274.164-.14.076-.288.137-.148.06-.3.107-.153.046-.31.078-.157.03-.315.046-.16.016-.319.016-.16 0-.319-.016-.158-.015-.315-.047-.157-.03-.31-.077-.152-.046-.3-.107-.147-.061-.288-.137-.14-.075-.274-.164-.132-.088-.256-.19-.123-.101-.236-.214t-.214-.236-.19-.256-.164-.274q-.076-.14-.137-.288-.06-.148-.107-.3-.046-.153-.078-.31-.03-.157-.046-.315Q2 16.909 2 16.75q0-.16.016-.319.015-.158.046-.315.032-.157.078-.31.046-.152.107-.3.061-.147.137-.288.075-.14.164-.274.088-.132.19-.256.101-.123.214-.236t.236-.214q.124-.102.256-.19.133-.089.274-.164.14-.075.288-.137.148-.06.3-.107.153-.046.31-.078.157-.03.315-.046.16-.016.319-.016.16 0 .319.016.158.015.315.046.157.032.31.078.152.046.3.107.147.062.288.137t.274.164q.132.088.256.19.123.101.236.214t.214.236.19.256.164.274q.076.14.137.288.06.148.107.3.046.153.078.31.03.157.046.315.016.16.016.319m8.25-3.25a3.25 3.25 0 1 0 2.426 5.412 1 1 0 0 1 .085-.107l.026-.024A3.25 3.25 0 0 0 16.75 13.5"/></svg>