<svg xmlns="http://www.w3.org/2000/svg" xmlns:xlink="http://www.w3.org/1999/xlink" fill="none" version="1.1" width="23.9990234375" height="24" viewBox="0 0 23.9990234375 24"><g><g><path d="M18.6,1C18.6,1,8.7,1,8.7,1C4.4474,1,0.9999999784727,4.4474,1,8.7C1,8.7,1,18.6,1,18.6C1,21.0299,2.9701,23,5.4,23C5.4,23,15.3,23,15.3,23C19.5526,23,23,19.5526,23,15.3C23,15.3,23,5.4,23,5.4C23,2.9701,21.0299,1.0000000000000007,18.6,1.0000000000000007C18.6,1.0000000000000007,18.6,1,18.6,1C18.6,1,18.6,1,18.6,1ZM16.444000000000003,15.311C16.444000000000003,15.311,7.644,15.311,7.644,15.311C7.0368,15.311,6.544,14.8182,6.544,14.211C6.544,13.6038,7.0368,13.111,7.644,13.111C7.644,13.111,16.444000000000003,13.111,16.444000000000003,13.111C17.0512,13.111,17.544,13.6038,17.544,14.211C17.544,14.8182,17.0523,15.311,16.444000000000003,15.311C16.444000000000003,15.311,16.444000000000003,15.311,16.444000000000003,15.311ZM16.444000000000003,10.8901C16.444000000000003,10.8901,7.644,10.8901,7.644,10.8901C7.0368,10.8901,6.544,10.3973,6.544,9.7901C6.544,9.1829,7.0368,8.690100000000001,7.644,8.690100000000001C7.644,8.690100000000001,16.444000000000003,8.690100000000001,16.444000000000003,8.690100000000001C17.0512,8.690100000000001,17.544,9.1829,17.544,9.7901C17.544,10.3973,17.0523,10.8901,16.444000000000003,10.8901C16.444000000000003,10.8901,16.444000000000003,10.8901,16.444000000000003,10.8901Z" fill="#ffffff" fill-opacity="1"/></g></g></svg>