<svg xmlns="http://www.w3.org/2000/svg" width="24" height="24" fill="none"><path fill="#FFF" fill-rule="evenodd" d="M11.925 20.913c-1.654 0-3.29-.38-4.75-1.1l-2.847.6a.725.725 0 0 1-.86-.86l.479-2.275C2.67 15.728 2 13.895 2 11.956 2 7.017 6.452 3 11.925 3c5.472 0 9.924 4.017 9.924 8.956 0 4.94-4.452 8.957-9.924 8.957m-4.648-2.59a.74.74 0 0 1 .337.084 9.3 9.3 0 0 0 4.31 1.053c4.672 0 8.473-3.366 8.473-7.504 0-4.137-3.8-7.504-8.472-7.504S3.452 7.82 3.452 11.956c0 1.697.63 3.3 1.821 4.639a.72.72 0 0 1 .169.632l-.324 1.535 2.008-.423q.075-.015.15-.015m-.195-5.399a.968.968 0 1 0 .001-1.936.968.968 0 0 0 0 1.936m5.326-.13a.968.968 0 1 0-.968-1.677.968.968 0 0 0 .968 1.678m5.326-.838a.968.968 0 1 1-1.937 0 .968.968 0 0 1 1.937 0"/></svg>