<svg xmlns="http://www.w3.org/2000/svg" xmlns:xlink="http://www.w3.org/1999/xlink" fill="none" version="1.1" width="30" height="30" viewBox="0 0 30 30"><defs><clipPath id="master_svg0_0_1359"><rect x="0" y="0" width="30" height="30" rx="0"/></clipPath></defs><g clip-path="url(#master_svg0_0_1359)"><g><path d="M15,0C6.71564,0,0,6.71564,0,15C0,23.2844,6.71564,30,15,30C23.2844,30,30,23.2844,30,15C30,6.71564,23.2844,0,15,0C15,0,15,0,15,0Z" fill="#E8CDA7" fill-opacity="1"/></g><g transform="matrix(0,1,-1,0,30.873866081237793,-11.145535469055176)"><path d="M25.046590775146484,10.459155306091308C25.557980775146483,9.66583630609131,26.733110775146486,9.665834306091309,27.244500775146484,10.459155306091308C27.244500775146484,10.459155306091308,31.076400775146485,16.40364530609131,31.076400775146485,16.40364530609131C31.626800775146485,17.25756530609131,31.004180775146484,18.37386530609131,29.977440775146484,18.37386530609131C29.977440775146484,18.37386530609131,22.313660775146484,18.37386530609131,22.313660775146484,18.37386530609131C21.286916775146484,18.37386530609131,20.664257775146485,17.25756530609131,21.214703775146486,16.40364530609131C21.214703775146486,16.40364530609131,25.046590775146484,10.459155306091308,25.046590775146484,10.459155306091308C25.046590775146484,10.459155306091308,25.046590775146484,10.459155306091308,25.046590775146484,10.459155306091308Z" fill="#FFFFFF" fill-opacity="1"/></g></g></svg>