<svg xmlns="http://www.w3.org/2000/svg" xmlns:xlink="http://www.w3.org/1999/xlink" fill="none" version="1.1" width="35" height="35" viewBox="0 0 35 35"><defs><linearGradient x1="0.5" y1="0" x2="0.5" y2="1" id="master_svg0__38303"><stop offset="0%" stop-color="#1BC865" stop-opacity="1"/><stop offset="100%" stop-color="#10D3D8" stop-opacity="1"/></linearGradient><linearGradient x1="0.5" y1="0" x2="0.5" y2="1" id="master_svg1__38305"><stop offset="0%" stop-color="#46ED88" stop-opacity="1"/><stop offset="100%" stop-color="#88D5A9" stop-opacity="1"/></linearGradient><linearGradient x1="0.5" y1="0" x2="0.5" y2="1" id="master_svg2__38305"><stop offset="0%" stop-color="#46ED88" stop-opacity="1"/><stop offset="100%" stop-color="#88D5A9" stop-opacity="1"/></linearGradient></defs><g><g></g><g><g><path d="M18.2667,7C24.0155,7,28.6867,11.61373,28.7795,17.340400000000002L28.781,17.5143L28.781,25.4C28.781,26.3678,27.9964,27.1524,27.0286,27.1524C26.0901,27.1524,25.3239,26.4146,25.2783,25.4875L25.2762,25.4L25.2762,17.5143C25.2762,13.689119999999999,22.2122,10.57959,18.404600000000002,10.50609L18.2667,10.504760000000001L16.5143,10.504760000000001C12.689119999999999,10.504760000000001,9.57959,13.568760000000001,9.50609,17.3763L9.504760000000001,17.5143L9.504760000000001,25.4C9.504760000000001,26.3678,8.72019,27.1524,7.7523800000000005,27.1524C6.8138950000000005,27.1524,6.0477178,26.4146,6.00214461,25.4875L6,25.4L6,17.5143C6,11.76547,10.61373,7.0942581,16.340400000000002,7.00140861L16.5143,7L18.2667,7Z" fill="url(#master_svg0__38303)" fill-opacity="1"/></g><g><path d="M13.885710967140199,20.142857551574707C14.369620967140197,20.142857551574707,14.761900967140198,20.535141551574707,14.761900967140198,21.019047551574708L14.761900967140198,28.904757551574708C14.761900967140198,29.388667551574706,14.369620967140197,29.780947551574705,13.885710967140199,29.780947551574705L10.380950967140198,29.780947551574705C8.929230967140198,29.780947551574705,7.752380967140198,28.604097551574707,7.752380967140198,27.15237755157471L7.752380967140198,21.019047551574708C7.752380967140198,20.535141551574707,8.144664967140198,20.142857551574707,8.628570967140197,20.142857551574707L13.885710967140199,20.142857551574707Z" fill-rule="evenodd" fill="url(#master_svg1__38305)" fill-opacity="1"/></g><g transform="matrix(-1,0,0,1,54.05714416503906,0)"><path d="M33.16190208251953,20.142857551574707C33.645812082519534,20.142857551574707,34.03809208251953,20.535141551574707,34.03809208251953,21.019047551574708L34.03809208251953,28.904757551574708C34.03809208251953,29.388667551574706,33.645812082519534,29.780947551574705,33.16190208251953,29.780947551574705L29.65714208251953,29.780947551574705C28.205422082519533,29.780947551574705,27.02857208251953,28.604097551574707,27.02857208251953,27.15237755157471L27.02857208251953,21.019047551574708C27.02857208251953,20.535141551574707,27.42085608251953,20.142857551574707,27.904762082519532,20.142857551574707L33.16190208251953,20.142857551574707Z" fill-rule="evenodd" fill="url(#master_svg2__38305)" fill-opacity="1"/></g><g><path d="M12.57142811340332,21.895237922668457C12.10951811340332,21.895237922668457,11.73108961340332,22.252669922668456,11.69764139340332,22.706036922668456L11.69523811340332,22.771427922668458L11.69523811340332,27.152377922668457C11.69523811340332,27.63628792266846,12.08752211340332,28.028567922668458,12.57142811340332,28.028567922668458C13.033338113403321,28.028567922668458,13.41176811340332,27.671137922668457,13.445218113403321,27.217767922668457L13.44761811340332,27.152377922668457L13.44761811340332,22.771427922668458C13.44761811340332,22.287521922668457,13.05533811340332,21.895237922668457,12.57142811340332,21.895237922668457Z" fill-rule="evenodd" fill="#FFFFFF" fill-opacity="1"/></g><g><path d="M23.961904340209962,21.895237922668457C23.499994340209962,21.895237922668457,23.12156584020996,22.252669922668456,23.08811762020996,22.706036922668456L23.08571434020996,22.771427922668458L23.08571434020996,27.152377922668457C23.08571434020996,27.63628792266846,23.47799834020996,28.028567922668458,23.961904340209962,28.028567922668458C24.42381434020996,28.028567922668458,24.80224434020996,27.671137922668457,24.83569434020996,27.217767922668457L24.83809434020996,27.152377922668457L24.83809434020996,22.771427922668458C24.83809434020996,22.287521922668457,24.44581434020996,21.895237922668457,23.961904340209962,21.895237922668457Z" fill-rule="evenodd" fill="#FFFFFF" fill-opacity="1"/></g></g></g></svg>