<svg xmlns="http://www.w3.org/2000/svg" xmlns:xlink="http://www.w3.org/1999/xlink" fill="none" version="1.1" width="35" height="35" viewBox="0 0 35 35"><defs><linearGradient x1="0.5" y1="0" x2="0.5" y2="1" id="master_svg0__38308"><stop offset="0%" stop-color="#975FF8" stop-opacity="1"/><stop offset="100%" stop-color="#4F46EB" stop-opacity="1"/></linearGradient><linearGradient x1="0.2207144796848297" y1="0.10826224088668823" x2="0.4039011804090865" y2="1.0193225686251253" id="master_svg1__38310"><stop offset="0%" stop-color="#B57EFD" stop-opacity="1"/><stop offset="100%" stop-color="#745EFD" stop-opacity="1"/></linearGradient></defs><g><g></g><g><g><path d="M12.93064,29.569255303955078C13.31888,29.258655303955077,13.69014,28.94985530395508,14.04441,28.642655303955078L14.34391,28.37975530395508C14.49158,28.24855530395508,14.63613,28.11765530395508,14.77756,27.987055303955078L15.0563,27.72615530395508C18.0762,24.86165530395508,19.586199999999998,22.146775303955078,19.586199999999998,19.581455303955078C19.586199999999998,15.775215303955079,16.320999999999998,12.689655303955078,12.293099999999999,12.689655303955078C8.265229999999999,12.689655303955078,5,15.775225303955079,5,19.581455303955078C5,22.65928530395508,7.16324,25.944455303955078,11.48972,29.437055303955077L11.65505,29.569855303955077C12.02815,29.86765530395508,12.55781,29.86745530395508,12.93064,29.569255303955078Z" fill-rule="evenodd" fill="url(#master_svg0__38308)" fill-opacity="1"/></g><g><path d="M18.475013825988768,30.5095C19.62091382598877,29.554,20.66941382598877,28.6086,21.62061382598877,27.6735L21.95221382598877,27.3439C26.37491382598877,22.8997,28.586213825988768,18.6874,28.586213825988768,14.7069C28.586213825988768,8.79364,23.79261382598877,4,17.879313825988767,4C11.96605382598877,4,7.1724138259887695,8.79365,7.1724138259887695,14.7069C7.1724138259887695,19.090899999999998,9.84198382598877,23.7457,15.18112382598877,28.6713L15.54510382598877,29.0038C16.035813825988768,29.4476,16.54809382598877,29.8937,17.08194382598877,30.3419L17.28311382598877,30.5101C17.62851382598877,30.7975,18.12991382598877,30.7973,18.475013825988768,30.5095Z" fill-rule="evenodd" fill="url(#master_svg1__38310)" fill-opacity="1"/></g><g><ellipse cx="17.879310131072998" cy="14.706896305084229" rx="3.568965435028076" ry="3.568965435028076" fill="#F2EDFE" fill-opacity="1"/></g></g></g></svg>