<svg xmlns="http://www.w3.org/2000/svg" xmlns:xlink="http://www.w3.org/1999/xlink" fill="none" version="1.1" width="20.20667266845703" height="25.97998046875" viewBox="0 0 20.20667266845703 25.97998046875"><g><g><g><path d="M2.2621825406837464,8.111541029815674C0.6995355406837463,9.593361029815673,0.6735555406837463,10.851951029815673,1.5087655406837464,12.152871029815675C2.3439725406837466,13.454761029815675,4.149102540683746,13.380671029815673,4.0172825406837465,16.357781029815676C3.885452540683746,19.334861029815674,2.6201325406837466,19.357961029815673,2.4305725406837464,21.128461029815675C2.2410125406837462,22.898961029815673,2.6778625406837464,25.292961029815675,6.892402540683746,25.903961029815672C11.106952540683746,26.515961029815674,15.291652540683746,23.315661029815672,16.220152540683745,20.43186102981567C17.149652540683746,17.547061029815673,18.420752540683747,15.107861029815673,18.269752540683747,12.577211029815674C18.093652540683745,9.628001029815675,16.606952540683746,6.769236629815674,12.906252540683747,6.752878829815674C9.204622540683747,6.737483259815674,6.189982540683746,6.737483259815674,6.189982540683746,6.737483229815674C6.189982540683746,6.7374831998156735,3.8257925406837465,6.6277900298156736,2.2612225406837463,8.110571029815674L2.2621825406837464,8.111541029815674Z" fill="#FF5851" fill-opacity="1"/></g><g><path d="M2.2621825406837464,8.111541029815674C0.6995355406837463,9.593361029815673,0.6735555406837463,10.851951029815673,1.5087655406837464,12.152871029815675C2.3439725406837466,13.454761029815675,4.149102540683746,13.380671029815673,4.0172825406837465,16.357781029815676C3.885452540683746,19.334861029815674,2.6201325406837466,19.357961029815673,2.4305725406837464,21.128461029815675C2.2410125406837462,22.898961029815673,2.6778625406837464,25.292961029815675,6.892402540683746,25.903961029815672C11.106952540683746,26.515961029815674,13.367152540683746,23.315661029815672,14.295752540683747,20.43186102981567C15.225252540683746,17.547061029815673,16.496352540683745,15.107861029815673,16.345252540683745,12.577211029815674C16.169152540683747,9.628001029815675,14.682552540683746,6.769236629815674,10.981852540683747,6.752878829815674C7.280172540683746,6.737483259815674,6.189982540683746,6.737483259815674,6.189982540683746,6.737483229815674C6.189982540683746,6.7374831998156735,3.8257925406837465,6.6277900298156736,2.2612225406837463,8.110571029815674L2.2621825406837464,8.111541029815674Z" fill="#FD7071" fill-opacity="1"/></g><g><path d="M0,2.88667C0,4.48093,1.29241,5.77334,2.88667,5.77334C4.48093,5.77334,5.77334,4.48093,5.77334,2.88667C5.77334,1.85536,5.22314,0.902394,4.33,0.38674C3.43686,-0.128913,2.33647,-0.128913,1.44333,0.38674C0.550196,0.902394,-1.53677e-8,1.85536,0,2.88667Z" fill="#FD7375" fill-opacity="1"/></g><g><path d="M6.735558986663818,2.4055600428408384C6.73555898666382,3.7341100428408383,7.812558986663818,4.811110042840839,9.141118986663818,4.811110042840839C10.469668986663818,4.811110042840839,11.546668986663818,3.7341100428408383,11.546668986663818,2.4055600428408384C11.546668986663818,1.0770000428408384,10.469668986663818,4.284083843231201e-8,9.141118986663818,4.284083843231201e-8C7.812558986663818,4.284083824535701e-8,6.735558986663821,1.0770000428408384,6.735558986663821,2.4055600428408384L6.735558986663818,2.4055600428408384Z" fill="#FD7375" fill-opacity="1"/></g><g><path d="M16.357784920349122,3.848895390701294Q16.357784920349122,3.943435390701294,16.34851492034912,4.037515390701294Q16.33925492034912,4.131605390701294,16.320804920349122,4.2243353907012935Q16.30236492034912,4.317055390701293,16.274914920349122,4.407525390701294Q16.24747492034912,4.497995390701294,16.211294920349122,4.585345390701294Q16.17511492034912,4.672685390701294,16.13054492034912,4.756065390701294Q16.08598492034912,4.839445390701294,16.033454920349122,4.918055390701294Q15.98093492034912,4.996665390701294,15.920954920349121,5.069745390701295Q15.860974920349122,5.142825390701294,15.794124920349121,5.209675390701294Q15.727274920349121,5.276525390701294,15.654194920349122,5.336505390701294Q15.58111492034912,5.396485390701294,15.502504920349121,5.449005390701294Q15.42389492034912,5.501535390701294,15.340514920349122,5.546095390701294Q15.25713492034912,5.590665390701294,15.169794920349121,5.626845390701294Q15.082444920349122,5.663025390701294,14.991974920349122,5.690465390701294Q14.90150492034912,5.717915390701294,14.80878492034912,5.736355390701294Q14.716054920349121,5.754805390701295,14.621964920349122,5.764065390701294Q14.527884920349122,5.773335390701294,14.433344920349121,5.773335390701294Q14.338794920349121,5.773335390701294,14.244714920349121,5.764065390701294Q14.15062492034912,5.754805390701295,14.05789492034912,5.736355390701294Q13.96517492034912,5.717915390701294,13.87470492034912,5.690465390701294Q13.784234920349121,5.663025390701294,13.69688492034912,5.626845390701294Q13.609544920349121,5.590665390701294,13.526164920349121,5.546095390701294Q13.442784920349121,5.501535390701294,13.36417592034912,5.449005390701294Q13.28556692034912,5.396485390701294,13.212484920349121,5.336505390701294Q13.139402920349122,5.276525390701294,13.07255192034912,5.209675390701294Q13.00570092034912,5.142825390701294,12.94572392034912,5.069745390701295Q12.88574692034912,4.996665390701294,12.833221920349121,4.918055390701294Q12.780697920349121,4.839445390701294,12.73613092034912,4.756065390701294Q12.691563920349122,4.672685390701294,12.655384920349121,4.585345390701294Q12.619204920349121,4.497995390701294,12.59176092034912,4.407525390701294Q12.564316820349122,4.317055390701293,12.54587262034912,4.2243353907012935Q12.527428420349121,4.131605390701294,12.518161650349121,4.037515390701294Q12.508894920349121,3.943435390701294,12.508894920349121,3.848895390701294Q12.508894920349121,3.7543453907012942,12.518161650349121,3.660265390701294Q12.527428420349121,3.566175390701294,12.54587262034912,3.473445390701294Q12.564316820349122,3.380725390701294,12.59176092034912,3.2902553907012937Q12.619204920349121,3.199785390701294,12.655384920349121,3.112435390701294Q12.691563920349122,3.025095390701294,12.73613092034912,2.941715390701294Q12.780697920349121,2.858335390701294,12.833221920349121,2.7797263907012937Q12.88574692034912,2.701117390701294,12.94572392034912,2.628035390701294Q13.00570092034912,2.554953390701294,13.07255192034912,2.488102390701294Q13.139402920349122,2.421251390701294,13.212484920349121,2.361274390701294Q13.28556692034912,2.301297390701294,13.36417592034912,2.2487723907012938Q13.442784920349121,2.196248390701294,13.526164920349121,2.151681390701294Q13.609544920349121,2.107114390701294,13.69688492034912,2.070935390701294Q13.784234920349121,2.034755390701294,13.87470492034912,2.007311390701294Q13.96517492034912,1.979867290701294,14.05789492034912,1.961423090701294Q14.15062492034912,1.942978890701294,14.244714920349121,1.933712120701294Q14.338794920349121,1.924445390701294,14.433344920349121,1.924445390701294Q14.527884920349122,1.924445390701294,14.621964920349122,1.933712120701294Q14.716054920349121,1.942978890701294,14.80878492034912,1.961423090701294Q14.90150492034912,1.979867290701294,14.991974920349122,2.007311390701294Q15.082444920349122,2.034755390701294,15.169794920349121,2.070935390701294Q15.25713492034912,2.107114390701294,15.340514920349122,2.151681390701294Q15.42389492034912,2.196248390701294,15.502504920349121,2.2487723907012938Q15.58111492034912,2.301297390701294,15.654194920349122,2.361274390701294Q15.727274920349121,2.421251390701294,15.794124920349121,2.488102390701294Q15.860974920349122,2.554953390701294,15.920954920349121,2.628035390701294Q15.98093492034912,2.701117390701294,16.033454920349122,2.7797263907012937Q16.08598492034912,2.858335390701294,16.13054492034912,2.941715390701294Q16.17511492034912,3.025095390701294,16.211294920349122,3.112435390701294Q16.24747492034912,3.199785390701294,16.274914920349122,3.2902553907012937Q16.30236492034912,3.380725390701294,16.320804920349122,3.473445390701294Q16.33925492034912,3.566175390701294,16.34851492034912,3.660265390701294Q16.357784920349122,3.7543453907012942,16.357784920349122,3.848895390701294Z" fill="#FD7375" fill-opacity="1"/></g><g><path d="M17.32000733743375,6.254448807983398C17.31993770901875,6.770148807983398,17.59502032421875,7.246708807983398,18.04161832421875,7.504578807983398C18.48821732421875,7.762448807983398,19.03846732421875,7.762448807983398,19.48506732421875,7.504578807983398C19.93165732421875,7.246708807983398,20.20674732421875,6.770148807983398,20.20667732421875,6.254448807983398C20.20674732421875,5.7387478079833985,19.93165732421875,5.262191807983398,19.48506732421875,5.004321807983398C19.03846732421875,4.746451307983398,18.48821732421875,4.746451307983398,18.04161832421875,5.004321807983398C17.59502032421875,5.262191807983398,17.31993770901875,5.7387478079833985,17.32000733743375,6.254448807983398L17.32000733743375,6.254448807983398Z" fill="#FD7375" fill-opacity="1"/></g></g></g></svg>