<svg xmlns="http://www.w3.org/2000/svg" xmlns:xlink="http://www.w3.org/1999/xlink" fill="none" version="1.1" width="35" height="35" viewBox="0 0 35 35"><defs><linearGradient x1="0.05170987546443939" y1="0.11896912753582001" x2="0.5827941424524447" y2="0.27854767298899463" id="master_svg0__38292"><stop offset="0%" stop-color="#FFAE14" stop-opacity="1"/><stop offset="100%" stop-color="#FF8C00" stop-opacity="1"/></linearGradient><linearGradient x1="0.09108742326498032" y1="0.1718287616968155" x2="1.0094118425055572" y2="0.30035090335785153" id="master_svg1__38294"><stop offset="0%" stop-color="#FFDB26" stop-opacity="1"/><stop offset="100%" stop-color="#FF8C00" stop-opacity="1"/></linearGradient><linearGradient x1="0.5" y1="0" x2="0.5" y2="1" id="master_svg2__38296"><stop offset="0%" stop-color="#575757" stop-opacity="1"/><stop offset="0.2769820857793093%" stop-color="#FFFBF3" stop-opacity="1"/><stop offset="100%" stop-color="#FFEDD5" stop-opacity="1"/></linearGradient></defs><g><g></g><g><g><path d="M6.750000238418579 17.37142848968506C6.750000238418579 17.37142848968506 6.750000238418579 17.37142848968506 6.750000238418579 17.37142848968506L27.649999856948853 17.37142848968506C27.649999856948853 17.37142848968506 27.649999856948853 17.37142848968506 27.649999856948853 17.37142848968506L27.649999856948853 28.057142853736877C27.649999856948853 28.57786847688698 27.227868333835833 29 26.70714271068573 29L7.692857384681702 29C7.172131761531597 29 6.750000238418579 28.57786847688698 6.750000238418579 28.057142853736877Z" fill="url(#master_svg0__38292)" fill-opacity="1"/></g><g><path d="M6.9212401907348635,7L9.989330190734863,7L10.581320190734864,7.628571L23.469300190734863,7.628571L24.182900190734863,7L27.478800190734862,7C27.975500190734863,7,28.397000190734865,7.364682,28.46840019073486,7.856305L29.850000190734864,17.3714L4.550000190735137,17.3714L5.931620190734863,7.856305C6.003000190734864,7.364682,6.424460190734863,7,6.9212401907348635,7" fill-rule="evenodd" fill="url(#master_svg1__38294)" fill-opacity="1"/></g><g><path d="M19.939230000000002,22.242847265472413C19.812,22.242847265472413,19.67828,22.20352726547241,19.54157,22.12596726547241L17.47905,20.95491726547241C17.41254,20.917277265472414,17.30822,20.894777265472413,17.19992,20.894777265472413C17.091630000000002,20.894777265472413,16.98724,20.917277265472414,16.920740000000002,20.955027265472413L14.85835,22.12596726547241C14.721630000000001,22.20352726547241,14.58785,22.242847265472413,14.46062,22.242847265472413C14.30016,22.242847265472413,14.15313,22.178127265472412,14.05724,22.06534726547241C13.97651,21.970237265472413,13.89509,21.798997265472412,13.96587,21.52330726547241L14.5266,19.338197265472413C14.56495,19.188807265472413,14.47944,18.944347265472413,14.35394,18.844657265472414L12.518718,17.382897265472412C12.1945037,17.12474726547241,12.2394658,16.86817726547241,12.2738464,16.769867265472413C12.308227,16.671547265472412,12.434116,16.43940726547241,12.859621,16.40767726547241L15.26873,16.228127265472413C15.43329,16.215757265472412,15.65699,16.064737265472413,15.72038,15.923117265472412L16.64854,13.848820265472412C16.81244,13.482414565472412,17.08879,13.442857265472412,17.20005,13.442857265472412C17.31127,13.442857265472412,17.58767,13.482414565472412,17.75162,13.848879265472412L18.67972,15.923127265472413C18.74305,16.06480726547241,18.9667,16.215897265472414,19.13131,16.228197265472414L21.54035,16.407757265472412C21.966189999999997,16.439477265472412,22.09194,16.671627265472413,22.12619,16.769877265472413C22.160510000000002,16.86818726547241,22.20548,17.12475726547241,21.881320000000002,17.382967265472413L20.04596,18.844487265472413C19.92049,18.94429726547241,19.83504,19.188817265472412,19.87337,19.338097265472413L20.43423,21.523247265472413C20.50507,21.79900726547241,20.42359,21.970247265472413,20.34281,22.065237265472412C20.24678,22.17813726547241,20.09969,22.242857265472413,19.939230000000002,22.242857265472413L19.939230000000002,22.242847265472413Z" fill="url(#master_svg2__38296)" fill-opacity="1"/></g></g></g></svg>