<svg xmlns="http://www.w3.org/2000/svg" xmlns:xlink="http://www.w3.org/1999/xlink" fill="none" version="1.1" width="35" height="35" viewBox="0 0 35 35"><defs><linearGradient x1="0.12315939366817474" y1="0.1097886860370636" x2="0.790437479949497" y2="0.9375663857256543" id="master_svg0__38297"><stop offset="0%" stop-color="#00E5FF" stop-opacity="1"/><stop offset="100%" stop-color="#0072FE" stop-opacity="1"/></linearGradient><linearGradient x1="0.16840580105781555" y1="0.1099586933851242" x2="0.7836116181117365" y2="1.0594824261919822" id="master_svg1__38299"><stop offset="0%" stop-color="#00A1FF" stop-opacity="1"/><stop offset="100%" stop-color="#006DFD" stop-opacity="1"/></linearGradient></defs><g><g></g><g><g><path d="M8,7.89091Q11.0083,5.999999999999988,18.4,5.999999999999972Q25.7917,5.999999999999957,28.8,7.89091L28.8,29.9515L8,29.9515L8,7.89091Z" fill-rule="evenodd" fill="url(#master_svg0__38297)" fill-opacity="1"/></g><g><path d="M10.709038075737,8.6580359948349Q13.948919075736999,8.0910379948349,15.343699075737,7.9797090448349Q15.496639075737,7.9675016348349,15.836599075736999,8.353562994834899C16.268179075737,8.8436779948349,16.859949075737,9.1842259948349,17.512999075737,9.1844359948349L19.273469075736998,9.1849859948349C19.945409075737,9.1851959948349,20.548209075737,8.8249079948349,20.982809075737002,8.3124419948349Q21.276909075737,7.9655790948349,21.409709075737,7.9760211598349Q22.818309075736998,8.0867409948349,26.084409075737,8.6571449948349C26.561309075737,8.7404439948349,26.909109075737,9.1555959948349,26.909109075737,9.639775994834899L26.909109075737,27.0606159948349C26.909109075737,27.6129159948349,26.461409075737,28.0606159948349,25.909109075737,28.0606159948349L10.890909075737,28.0606159948349C10.338624075737,28.0606159948349,9.890909075737,27.6129159948349,9.890909075737,27.0606159948349L9.890909075737,9.6395259948349C9.890909075737,9.1554559948349,10.232218075737,8.7414819948349,10.709038075737,8.6580359948349" fill-rule="evenodd" fill="url(#master_svg1__38299)" fill-opacity="1"/></g><g><path d="M13.798788070678711,20.521777153015137L22.99232807067871,20.521777153015137L18.39555807067871,25.630427153015138L13.798788070678711,20.521777153015137Z" fill-rule="evenodd" fill="#F6FAFF" fill-opacity="1"/></g></g></g></svg>