<svg xmlns="http://www.w3.org/2000/svg" xmlns:xlink="http://www.w3.org/1999/xlink" fill="none" version="1.1" width="23.959823608398438" height="22.666015625" viewBox="0 0 23.959823608398438 22.666015625"><g><g><g><path d="M23.9548,3.2104C23.8578,1.42419,22.3733,0,20.5634,0L3.39643,0L3.2104,0.00503681C1.42419,0.101994,0,1.58652,0,3.39643L0,16.0741L0.00503681,16.2601C0.101994,18.0463,1.58652,19.4705,3.39643,19.4705L7.45982,19.4705L9.47143,21.6027L9.62375,21.7543C10.2486,22.3389,11.0567,22.6611,11.9196,22.6661L12.149,22.6595C12.9974,22.6074,13.7827,22.2449,14.3786,21.6268L16.4491,19.4732L20.5634,19.4732L20.7494,19.4682C22.5356,19.3712,23.9598,17.8867,23.9598,16.0768L23.9598,3.39643L23.9548,3.2104ZM3.32422,2.10184L3.45326,2.09912L20.5634,2.09989L20.6905,2.10616C21.3186,2.16835,21.8232,2.68586,21.8579,3.32411L21.8606,3.45316L21.8598,16.0767L21.8535,16.2038C21.7914,16.8319,21.2739,17.3365,20.6356,17.3712L20.5066,17.3739L16.4491,17.3731L16.2598,17.3817C15.7582,17.427,15.2872,17.6516,14.9353,18.0177L12.8647,20.1712L12.763,20.2666C12.552,20.4447,12.2981,20.5463,12.0203,20.5634L11.8599,20.5668L11.7457,20.5585C11.5136,20.5278,11.2637,20.4127,11.0585,20.2208L10.9528,20.1141L8.98729,18.0293L8.84945,17.896C8.46743,17.5588,7.97373,17.3704,7.45982,17.3704L3.39643,17.3704L3.26928,17.3642C2.64124,17.302,2.13659,16.7845,2.10195,16.1462L2.09923,16.0172L2.1,3.39632L2.10627,3.26917C2.16846,2.64113,2.68596,2.13649,3.32422,2.10184Z" fill-rule="evenodd" fill="#333333" fill-opacity="1"/></g><g><path d="M7.539883763763427,8.24799961895752C8.014079763763428,7.908477618957519,8.673731763763428,8.017652518957519,9.013251763763428,8.491848618957519C9.883081763763428,9.706706618957519,10.854291763763428,10.267366618957519,11.994641763763429,10.267366618957519C13.134991763763427,10.267366618957519,14.106201763763428,9.706706618957519,14.976031763763427,8.491848618957519C15.315561763763428,8.017652518957519,15.975201763763428,7.908477618957519,16.449401763763426,8.24799961895752C16.92360176376343,8.58752261895752,17.032771763763428,9.24716661895752,16.693251763763428,9.72136661895752C15.446831763763427,11.462186618957519,13.858041763763428,12.379366618957519,11.994641763763429,12.379366618957519C10.131241763763427,12.379366618957519,8.542451763763427,11.462186618957519,7.296034763763428,9.72136661895752C6.956512763763428,9.24716661895752,7.065687663763428,8.58752261895752,7.539883763763427,8.24799961895752Z" fill="#333333" fill-opacity="1"/></g></g></g></svg>