<svg xmlns="http://www.w3.org/2000/svg" xmlns:xlink="http://www.w3.org/1999/xlink" fill="none" version="1.1" width="23.49999237060547" height="22.3212890625" viewBox="0 0 23.49999237060547 22.3212890625"><g><g><g><path d="M23.5,3.6045625001117587C23.5,1.6179425001117587,21.7967,0.002812500111758709,19.708,0.002812500111758709L3.79197,0.002812500111758709C1.70043,0.002812500111758709,0,1.6206325001117587,0,3.6045625001117587L0,18.719512500111758C0,20.706112500111757,1.70327,22.32121250011176,3.79197,22.32121250011176L19.708,22.32121250011176C21.7996,22.32121250011176,23.5,20.706112500111757,23.5,18.72221250011176L23.5,3.6045625001117587ZM3.79197,1.8407025001117587L19.708,1.8407025001117587L19.8526,1.8460325001117588C20.8071,1.9166825001117587,21.5653,2.680442500111759,21.5653,3.604782500111759L21.5653,18.72241250011176L21.5597,18.85961250011176C21.4854,19.765312500111758,20.6821,20.48381250011176,19.708,20.48381250011176L3.79197,20.48381250011176L3.64739,20.47851250011176C2.69287,20.40781250011176,1.93472,19.64411250011176,1.93472,18.719712500111758L1.93472,3.604782500111759L1.94033,3.4674625001117585C2.0147,2.5608225001117586,2.81881,1.8407025001117587,3.79197,1.8407025001117587Z" fill-rule="evenodd" fill="#333333" fill-opacity="1"/></g><g><path d="M16.977499961853027,1.28206C16.977499961853027,0.57521,16.439139961853027,0,15.771579961853027,0L8.183419961853028,0C7.518549961853028,0,6.977499961853027,0.572348,6.977499961853027,1.28206L6.977499961853027,14.7179C6.977499961853027,15.1873,7.217068961853028,15.6165,7.601994961853027,15.8426C7.986919961853028,16.0658,8.457979961853027,16.0515,8.829449961853028,15.7997L11.976149961853027,13.6734L15.122859961853027,15.7997C15.319359961853028,15.9342,15.542779961853027,16,15.768889961853027,16C15.968079961853027,16,16.167269961853027,15.9456,16.35299996185303,15.8397C16.737929961853027,15.6137,16.977499961853027,15.1815,16.977499961853027,14.7151L16.977499961853027,1.28206ZM8.977499961853027,2L14.977499961853027,2L14.977499961853027,13L12.992789961853028,11.6729L12.858069961853026,11.5909C12.263349961853027,11.2631,11.533679961853029,11.2904,10.961449961853027,11.6729L8.977499961853027,12.9981L8.977499961853027,2Z" fill-rule="evenodd" fill="#333333" fill-opacity="1"/></g><g><path d="M1.2628124991804361,8.855625076293945L6.611252499180436,8.855625076293945C7.308752499180436,8.855625076293945,7.871252499180436,8.424915076293946,7.871252499180436,7.895625076293945C7.871252499180436,7.366339076293945,7.308752499180436,6.935625076293945,6.611252499180436,6.935625076293945L1.2628124991804361,6.935625076293945C0.5681254991804361,6.935625076293945,0.0028124991804361343,7.366339076293945,0.0028124991804361343,7.895625076293945C0.0028124991804361343,8.424915076293946,0.5653124991804361,8.855625076293945,1.2628124991804361,8.855625076293945ZM16.586212499180437,8.855625076293945L22.061212499180435,8.855625076293945C22.755912499180436,8.855625076293945,23.321212499180437,8.424915076293946,23.321212499180437,7.895625076293945C23.321212499180437,7.366339076293945,22.758712499180437,6.935625076293945,22.061212499180435,6.935625076293945L16.586212499180437,6.935625076293945C15.891612499180436,6.935625076293945,15.326212499180436,7.366339076293945,15.326212499180436,7.895625076293945C15.326212499180436,8.424915076293946,15.888712499180436,8.855625076293945,16.586212499180437,8.855625076293945Z" fill-rule="evenodd" fill="#333333" fill-opacity="1"/></g></g></g></svg>