<svg xmlns="http://www.w3.org/2000/svg" xmlns:xlink="http://www.w3.org/1999/xlink" fill="none" version="1.1" width="25.7119140625" height="22.19140625" viewBox="0 0 25.7119140625 22.19140625"><g><g transform="matrix(-1,0,0,1,51.423828125,0)"><g><path d="M41.349590625,18.3271509375C41.349590625,19.7380609375,42.493390625,20.8818409375,43.904290625,20.8818409375C45.315190625,20.8818409375,46.458990625,19.7380609375,46.458990625,18.3271509375C46.458990625,16.9162309375,45.315190625,15.7724609375,43.904290625,15.7724609375C42.493390625,15.7724609375,41.349590625,16.9162309375,41.349590625,18.3271509375L41.349590625,18.3271509375ZM30.650390625,18.3271509375C30.650390625,19.7380609375,31.794160625,20.8818409375,33.205080625,20.8818409375C34.615990625,20.8818409375,35.759770625,19.7380609375,35.759770625,18.3271509375C35.759770625,16.9162309375,34.615990625,15.7724609375,33.205080625,15.7724609375C31.794160625,15.7724609375,30.650390625,16.9162309375,30.650390625,18.3271509375L30.650390625,18.3271509375Z" fill="#FFFFFF" fill-opacity="1"/></g><g><path d="M47.7685590625,18.327150625C47.7685590625,16.197270625,46.0341790625,14.462890625,43.9042990625,14.462890625C41.7744190625,14.462890625,40.0400390625,16.194340625,40.0400390625,18.327150625C40.0400390625,20.457030625,41.7744190625,22.191410625,43.9042990625,22.191410625C46.0371090625,22.191410625,47.7714890625,20.457030625,47.7685590625,18.327150625ZM42.0400390625,18.327150625C42.0400390625,17.300150625,42.8777390625,16.462890625,43.9042990625,16.462890625C44.9296090625,16.462890625,45.7685590625,17.301840625,45.7685590625,18.327150625C45.7699690625,19.353520625,44.9320790625,20.191410625,43.9042990625,20.191410625C42.8789790625,20.191410625,42.0400390625,19.352460625,42.0400390625,18.327150625Z" fill-rule="evenodd" fill="#333333" fill-opacity="1"/></g><g><path d="M37.0722703125,18.327150625C37.0722703125,16.194340625,35.3349603125,14.462890625,33.2050803125,14.462890625C31.0752003125,14.462890625,29.3408203125,16.194340625,29.3408203125,18.327150625C29.3408203125,20.457030625,31.0752003125,22.191410625,33.2050803125,22.191410625C35.3378903125,22.191410625,37.0722703125,20.457030625,37.0722703125,18.327150625ZM31.3408203125,18.327150625C31.3408203125,17.300150625,32.1785203125,16.462890625,33.2050803125,16.462890625C34.2326603125,16.462890625,35.0722703125,17.301180625,35.0722703125,18.327150625C35.0722703125,19.352680624999998,34.2331003125,20.191410625,33.2050803125,20.191410625C32.1797603125,20.191410625,31.3408203125,19.352460625,31.3408203125,18.327150625Z" fill-rule="evenodd" fill="#333333" fill-opacity="1"/></g><g><path d="M40.6004471875,17.2646484375L36.5147901875,17.2646484375C36.1439141875,17.2646484375,35.8076171875,17.7247584375,35.8076171875,18.3242184375C35.8076171875,18.8775684375,36.0941661875,19.312178437500002,36.4299551875,19.3757684375L36.5147901875,19.3837884375L40.6004471875,19.3837884375C40.9713171875,19.3837884375,41.3076171875,18.9236784375,41.3076171875,18.3242184375C41.3076171875,17.7708704375,41.0210671875,17.3362591375,40.6852771875,17.2726700675L40.6004471875,17.2646484375Z" fill="#333333" fill-opacity="1"/></g><g><path d="M35.452146875,6.357421875C34.905626875,6.357421875,34.456276875,6.770335875,34.398786875,7.301474875L34.392576875,7.416991875L34.392576875,10.259761875L30.870116875,10.259761875C30.284555875,10.259761875,29.810546875,10.733771875,29.810546875,11.319331875C29.810546875,11.865861875,30.223460875,12.315211875,30.754599875,12.372691875000001L30.870116875,12.378901875L35.455076875,12.378901875C36.001446875,12.378901875,36.450446875,11.966331875,36.505966875,11.437301875L36.511726875,11.322261874999999L36.511726875,7.416991875C36.511726875,6.831432875,36.037716875,6.357421875,35.452146875,6.357421875Z" fill="#333333" fill-opacity="1"/></g><g><path d="M36.6855140625,0L48.0029140625,0C49.8888140625,0,51.4238140625,1.53413,51.4238140625,3.41797L51.4238140625,15.9658C51.4238140625,17.8497,49.8888140625,19.3838,48.0029140625,19.3838L47.4619140625,19.3838C46.8763140625,19.3838,46.4023140625,18.9098,46.4023140625,18.3242C46.4023140625,17.7387,46.8763140625,17.2646,47.4619140625,17.2646L48.0029140625,17.2646C48.7181140625,17.2646,49.3017140625,16.681,49.3017140625,15.9658L49.3017140625,3.41797C49.3017140625,2.70275,48.7181140625,2.11914,48.0029140625,2.11914L36.5146140625,2.11914L36.5146140625,4.08008C36.5146140625,4.66564,36.0406140625,5.13965,35.4550740625,5.13965L31.4677740625,5.13965L31.2683240625,5.23892L27.8698840625,9.73599L27.8193340625,9.88732L27.8339840625,15.9635C27.8339840625,16.6781,28.4175940625,17.2617,29.1328140625,17.2617L29.6533240625,17.2617C30.2388840625,17.2617,30.7128940625,17.7357,30.7128940625,18.3213C30.7128940625,18.9069,30.2388840625,19.3809,29.6533240625,19.3809L29.1328140625,19.3809C27.2468940625,19.3809,25.7119140625,17.8467,25.7119140625,15.9629L25.7119140625,9.8457C25.7119140625,9.34433,25.8770110625,8.85043,26.1760910625,8.45953L29.6018040625,3.92611C30.0215140625,3.36123,30.7087240625,3.02051,31.4296840625,3.02051L34.3925740625,3.02051L34.3925740625,2.29297C34.3925740625,1.02772,35.4202940625,0,36.6855140625,0Z" fill="#333333" fill-opacity="1"/></g></g></g></svg>