<svg xmlns="http://www.w3.org/2000/svg" xmlns:xlink="http://www.w3.org/1999/xlink" fill="none" version="1.1" width="24.793365478515625" height="24" viewBox="0 0 24.793365478515625 24"><g><g><g><path d="M18.3728,1.6095003576278686C16.0323,0.2514433576278687,13.3161,-0.2634366423721313,10.6626,0.12683035762786865C9.90446,0.23834035762786865,8.87708,0.5618013576278686,7.58281,1.0974103576278686C7.54486,1.1131503576278687,7.50799,1.1311803576278687,7.47241,1.1514203576278688C6.99971,1.4203103576278686,6.83449,2.0214903576278687,7.10338,2.4941803576278687C7.41315,3.038740357627869,8.07838,3.269620357627869,8.6589,3.0340403576278687C9.60185,2.651400357627869,10.3589,2.4162603576278685,10.932,2.3288103576278685C13.7764,1.8948103576278688,16.6822,2.7416703576278687,18.8591,4.677670357627869C21.9107,7.391690357627868,22.949,11.71700035762787,21.4898,15.516300357627868L21.3785,15.793300357627869L21.235,15.841600357627868L19.8906,15.062500357627869L20.0771,20.42210035762787L24.7934,17.90510035762787L23.3343,17.060000357627867L23.2929,16.93130035762787C25.7677,11.437400357627869,23.7745,4.927630357627868,18.6456,1.7724703576278686L18.3728,1.6095003576278686ZM4.71626,3.577640357627869L0,6.094590357627869L1.4612,6.9397803576278685L1.50269,7.0685103576278685C-1.01553,12.658800357627868,1.09236,19.300900357627867,6.42282,22.39030035762787C8.87707,23.814300357627868,11.7421,24.309700357627868,14.5107,23.81110035762787C15.1811,23.69040035762787,16.0833,23.390800357627867,17.2155,22.912100357627867C17.2512,22.897000357627867,17.2861,22.879800357627868,17.3198,22.86060035762787C17.7968,22.58930035762787,17.9635,21.98260035762787,17.6922,21.50560035762787C17.3816,20.959600357627867,16.716,20.726300357627867,16.1324,20.95870035762787C15.0791,21.378400357627868,14.2368,21.62800035762787,13.6033,21.70710035762787C10.8389,22.05260035762787,8.04482,21.197200357627867,5.93652,19.322200357627867C2.88517,16.60840035762787,1.84643,12.283100357627868,3.30468,8.484670357627868L3.41585,8.20770035762787L3.5594,8.15942035762787L4.90281,8.93725035762787L4.71626,3.577640357627869ZM13.9837,7.773310357627869C14.3499,7.488060357627869,14.8843,7.510730357627868,15.2238,7.8420403576278686L15.2991,7.924750357627869C15.5906,8.286420357627868,15.5664,8.812460357627868,15.2264,9.146860357627869L13.7815,10.568000357627868L13.842,10.71080035762787L15.4578,10.71080035762787L15.5603,10.71620035762787C16.0312,10.766200357627868,16.3978,11.157000357627869,16.3978,11.631700357627869C16.3978,12.140200357627869,15.977,12.552500357627869,15.4578,12.552500357627869L13.4192,12.552500357627869L13.3337,12.63620035762787L13.3337,13.64070035762787L13.4192,13.72450035762787L15.4578,13.72450035762787L15.5603,13.72990035762787C16.0312,13.779900357627868,16.3978,14.170600357627869,16.3978,14.64530035762787C16.3978,15.153800357627869,15.977,15.56610035762787,15.4578,15.56610035762787L13.4192,15.56610035762787L13.3337,15.64980035762787L13.3337,16.65830035762787L13.3282,16.758200357627867C13.2774,17.21760035762787,12.8802,17.575200357627867,12.3978,17.575200357627867C11.8809,17.575200357627867,11.4619,17.16470035762787,11.4619,16.65830035762787L11.4619,15.64980035762787L11.3764,15.56610035762787L9.33775,15.56610035762787L9.23534,15.56070035762787C8.76439,15.510700357627869,8.3978,15.119900357627868,8.3978,14.64530035762787C8.3978,14.136700357627868,8.81863,13.72450035762787,9.33775,13.72450035762787L11.3764,13.72450035762787L11.4619,13.64070035762787L11.4619,12.63620035762787L11.3764,12.552500357627869L9.33775,12.552500357627869L9.23534,12.547100357627869C8.76439,12.497100357627868,8.3978,12.106300357627868,8.3978,11.631700357627869C8.3978,11.12310035762787,8.81863,10.71080035762787,9.33775,10.71080035762787L10.9536,10.71080035762787L11.0141,10.568000357627868L9.56941,9.147110357627868L9.49654,9.066680357627869C9.20508,8.704810357627869,9.22956,8.178630357627869,9.56988,7.844390357627868C9.90848,7.511840357627869,10.4431,7.487450357627869,10.8123,7.773480357627869L10.8944,7.845000357627868L12.3372,9.26476035762787L12.4583,9.264770357627869L13.9023,7.8446003576278684L13.9837,7.773310357627869Z" fill-rule="evenodd" fill="#333333" fill-opacity="1"/></g></g></g></svg>