<svg xmlns="http://www.w3.org/2000/svg" xmlns:xlink="http://www.w3.org/1999/xlink" fill="none" version="1.1" width="26.032032012939453" height="22.95458984375" viewBox="0 0 26.032032012939453 22.95458984375"><g><g><g><path d="M3.42656,0L18.9861,0C20.8763,0,22.4098,1.48512,22.4098,3.30645L22.4098,6.32988C22.4098,6.89076,21.9552,7.34531,21.3943,7.34531C20.8335,7.34531,20.3789,6.89076,20.3789,6.32988L20.3789,3.30645C20.3789,2.59604,19.7477,2.03379,18.9861,2.03379L3.42656,2.03379C2.665,2.03379,2.03379,2.59604,2.03379,3.30645L2.03379,19.6482C2.03379,20.3587,2.665,20.9209,3.42656,20.9209L18.9861,20.9209C19.7457,20.9209,20.3789,20.3579,20.3789,19.6482L20.3789,16.4109C20.3789,15.8501,20.8335,15.3955,21.3943,15.3955C21.9552,15.3955,22.4098,15.8501,22.4098,16.4109L22.4098,19.6482C22.4098,21.469,20.874,22.9547,18.9832,22.9547L3.42656,22.9547C1.53573,22.9547,0,21.469,0,19.6482L0,3.30645C0,1.48574,1.53573,0,3.42656,0Z" fill="#333333" fill-opacity="1"/></g><g><path d="M26.032070121765138,9.7075709375C26.032070121765138,7.7957609375,24.362070121765136,6.2412109375,22.308370121765137,6.2412109375L13.586720121765136,6.2412109375C10.478320121765137,6.2412109375,7.947070121765137,8.5975709375,7.947070121765137,11.4912109375C7.947070121765137,14.3848509375,10.478320121765137,16.7412109375,13.586720121765136,16.7412109375L22.308370121765137,16.7412109375C24.362070121765136,16.7412109375,26.032070121765138,15.1866609375,26.032070121765138,13.2775709375L26.032070121765138,9.7075709375ZM13.586720121765136,8.2412109375L22.308370121765137,8.2412109375L22.469470121765134,8.2475209375C23.36857012176514,8.3183909375,24.032070121765138,8.9765909375,24.032070121765138,9.7075709375L24.032070121765138,13.2775709375L24.025270121765136,13.4053009375C23.948670121765137,14.1237709375,23.233570121765137,14.7412109375,22.308370121765137,14.7412109375L13.586720121765136,14.7412109375L13.384740121765137,14.7362809375C11.446940121765136,14.6413109375,9.947070121765137,13.1884909375,9.947070121765137,11.4912109375C9.947070121765137,9.7354109375,11.552160121765137,8.2412109375,13.586720121765136,8.2412109375Z" fill-rule="evenodd" fill="#333333" fill-opacity="1"/></g><g><path d="M12.291796684265137,11.477150556030274C12.291796684265135,12.214970556030273,12.889916684265136,12.813090556030273,13.627736684265138,12.813090556030273C14.365556684265137,12.813090556030273,14.963676684265137,12.214970556030273,14.963676684265137,11.477150556030274C14.963676684265137,10.739330556030273,14.365556684265137,10.141210556030273,13.627736684265138,10.141210556030273C12.889916684265136,10.141210556030273,12.291796684265138,10.739330556030273,12.291796684265138,11.477150556030274L12.291796684265137,11.477150556030274Z" fill="#333333" fill-opacity="1"/></g></g></g></svg>