<svg xmlns="http://www.w3.org/2000/svg" width="19.5" height="23.5"><path fill-rule="evenodd" d="M9.75 19.5q.24 0 .478-.012.24-.011.478-.035.238-.023.475-.058.236-.036.471-.082t.467-.105q.232-.058.461-.128.23-.07.455-.15t.446-.172.438-.194q.216-.102.427-.215t.416-.236.405-.256.391-.276.377-.294.363-.313q.177-.16.346-.33.17-.169.33-.346.161-.178.313-.363t.294-.377.276-.391q.133-.2.256-.405t.236-.416.215-.427q.102-.217.194-.438.091-.221.172-.446.08-.226.15-.455t.128-.46.105-.468q.046-.235.082-.471.035-.237.058-.475.024-.239.035-.478t.012-.478-.012-.478q-.011-.24-.035-.478-.023-.238-.058-.475-.036-.236-.082-.471t-.105-.467q-.058-.232-.128-.461-.07-.23-.15-.455t-.172-.446-.194-.438-.215-.427-.236-.417-.256-.404-.276-.391-.294-.377-.313-.363-.33-.346-.346-.33q-.178-.161-.363-.313t-.377-.294-.391-.276q-.2-.133-.405-.256t-.416-.236-.427-.215q-.217-.102-.438-.194-.221-.091-.446-.172-.226-.08-.455-.15t-.46-.128-.468-.105q-.235-.046-.471-.081-.237-.036-.475-.06-.239-.023-.478-.034T9.75 0t-.478.012q-.24.011-.478.035-.238.023-.475.059-.236.035-.471.081-.235.047-.467.105T6.92.42t-.455.15-.446.172-.438.194-.427.215-.417.236-.404.256-.391.276-.377.294-.363.313-.346.33-.33.346-.313.363-.294.377-.276.391-.256.404q-.123.206-.236.417t-.215.427-.194.438-.172.446-.15.455-.128.46-.105.468-.081.471-.06.475q-.023.239-.034.478T0 9.75t.012.478q.011.24.035.478.023.238.059.475.035.236.081.471.047.235.105.467t.128.461.15.455.172.446.194.438.215.427.236.416.256.405.276.391.294.377.313.363.33.346.346.33.363.313.377.294.391.276.404.256q.206.123.417.236t.427.215.438.194.446.172.455.15.46.128.468.105.471.082.475.058q.239.024.478.035t.478.012m0-2q.19 0 .38-.01.19-.009.38-.027.189-.019.377-.047t.375-.065.371-.083q.185-.047.367-.102t.36-.119.356-.137.348-.154q.172-.081.34-.171.167-.09.33-.188.164-.097.322-.203t.31-.22.3-.233q.148-.12.289-.249.14-.127.275-.262t.262-.275.249-.289q.12-.146.234-.3.113-.152.219-.31t.203-.322.188-.33.17-.34.155-.348.137-.355q.064-.18.12-.361.054-.182.1-.367.047-.184.084-.371t.065-.375.047-.377.028-.38.009-.38-.01-.38-.027-.38-.047-.377-.065-.375-.083-.371-.102-.367-.119-.36-.137-.356-.154-.348-.171-.34-.188-.33q-.097-.163-.203-.322-.106-.158-.22-.31-.113-.153-.233-.3-.12-.148-.249-.289-.127-.14-.262-.275t-.275-.262q-.141-.128-.289-.249-.146-.12-.3-.234-.152-.113-.31-.219t-.322-.203-.33-.188-.34-.17-.348-.155-.355-.137q-.18-.064-.361-.12-.182-.055-.367-.1-.184-.047-.371-.084t-.375-.065-.377-.047-.38-.028T9.75 2t-.38.01-.38.027-.377.047-.375.065-.371.083-.367.102-.36.119-.356.137-.348.154-.34.171-.33.188q-.163.097-.322.203-.158.106-.31.22-.153.112-.3.233-.148.12-.289.249-.14.127-.275.262-.135.134-.262.275-.128.141-.249.288-.12.148-.234.3-.113.153-.219.311-.106.159-.203.322t-.188.33-.17.34-.155.348-.137.355q-.064.18-.12.361-.055.182-.1.367-.047.184-.084.371t-.065.375-.047.377-.028.38T2 9.75t.01.38.027.38.047.377.065.375.083.371.102.367.119.36.137.356.154.348.171.34.188.33q.097.164.203.322t.22.31.233.3q.12.148.249.289.127.14.262.275.134.135.275.262.141.128.288.249.148.12.3.234.153.113.311.219.159.106.322.203t.33.188.34.17q.172.082.348.155t.355.137.361.12.367.1.371.084.375.065.377.047.38.028.38.009m3.857-4.18a1 1 0 0 0-1.143-1.64c-.928.646-1.787.955-2.585.955s-1.657-.309-2.585-.955a1 1 0 0 0-1.143 1.64c1.243.867 2.49 1.315 3.728 1.315 1.239 0 2.485-.448 3.728-1.314M17.5 21.5a1 1 0 1 1 0 2h-15a1 1 0 1 1 0-2z"/></svg>