<svg xmlns="http://www.w3.org/2000/svg" width="24" height="24" fill="none"><path fill="#FFF" fill-rule="evenodd" d="M19.721 10.86c0-4.336-3.524-7.86-7.86-7.86S4 6.524 4 10.86c0 2.051 1.028 3.593 2.299 5.008l.352.383.18.19.363.376 1.178 1.203.61.595 1.011.96 1.298 1.203a.857.857 0 0 0 1.15 0l.182-.169 1.346-1.256.698-.663.419-.406.354-.352 1.299-1.334.182-.19.356-.381c1.349-1.47 2.444-3.036 2.444-5.167m-7.86-6.383a6.35 6.35 0 0 0-6.363 6.373c0 1.866 1.012 3.285 2.207 4.562l.346.362.528.53.438.427 1.006.951 1.637 1.524a.307.307 0 0 0 .412 0l2.225-2.082.563-.536.48-.468.35-.354.346-.36c1.192-1.27 2.197-2.69 2.197-4.556a6.367 6.367 0 0 0-6.373-6.373m3.291 6.035A3.296 3.296 0 0 0 11.86 7.22a3.296 3.296 0 0 0-3.291 3.292 3.296 3.296 0 0 0 3.291 3.292 3.296 3.296 0 0 0 3.292-3.292m-5.18-.01a1.888 1.888 0 1 1 3.778 0 1.887 1.887 0 0 1-1.89 1.888 1.887 1.887 0 0 1-1.888-1.888"/></svg>