<svg xmlns="http://www.w3.org/2000/svg" xmlns:xlink="http://www.w3.org/1999/xlink" fill="none" version="1.1" width="37" height="38" viewBox="0 0 37 38"><defs><clipPath id="master_svg0_0_1631"><rect x="0" y="0" width="37" height="38" rx="0"/></clipPath><linearGradient x1="0.5" y1="-3.0616171314629196e-17" x2="0.5" y2="1" id="master_svg1_0_131"><stop offset="0%" stop-color="#E8CDA8" stop-opacity="1"/><stop offset="100%" stop-color="#F4E6CF" stop-opacity="1"/></linearGradient></defs><g clip-path="url(#master_svg0_0_1631)"><g><path d="M18.5,0C28.7171,0,37,8.50682,37,19C37,29.4932,28.7171,38,18.5,38C8.28296,38,0,29.4932,0,19C0,8.50682,8.28296,0,18.5,0C18.5,0,18.5,0,18.5,0ZM18.5,11.2273C18.054,11.2273,17.6262,11.4092,17.3108,11.7332C16.9953,12.0571,16.8182,12.4964,16.8182,12.9545C16.8182,12.9545,16.8182,17.2727,16.8182,17.2727C16.8182,17.2727,12.6136,17.2727,12.6136,17.2727C12.6136,17.2727,12.4875,17.277,12.4875,17.277C12.0522,17.3087,11.6458,17.5128,11.3544,17.8464C11.0629,18.18,10.9091,18.617,10.9255,19.0648C10.9419,19.5127,11.1271,19.9365,11.4421,20.2467C11.7571,20.5571,12.1772,20.7293,12.6136,20.7273C12.6136,20.7273,16.8182,20.7273,16.8182,20.7273C16.8182,20.7273,16.8182,25.0455,16.8182,25.0455C16.8182,25.0455,16.8224,25.175,16.8224,25.175C16.8532,25.6221,17.0519,26.0393,17.3767,26.3388C17.7016,26.6382,18.1271,26.796,18.5631,26.7792C18.9992,26.7624,19.4119,26.5721,19.7139,26.2487C20.0161,25.9252,20.1838,25.4937,20.1818,25.0455C20.1818,25.0455,20.1818,20.7273,20.1818,20.7273C20.1818,20.7273,24.3864,20.7273,24.3864,20.7273C24.3864,20.7273,24.5125,20.723,24.5125,20.723C24.9479,20.6913,25.3541,20.4872,25.6456,20.1536C25.9372,19.82,26.0909,19.383,26.0745,18.9352C26.0582,18.4873,25.8729,18.0635,25.5579,17.7533C25.2429,17.4429,24.8228,17.2707,24.3864,17.2727C24.3864,17.2727,20.1818,17.2727,20.1818,17.2727C20.1818,17.2727,20.1818,12.9545,20.1818,12.9545C20.1818,12.9545,20.1776,12.825,20.1776,12.825C20.1457,12.3905,19.9552,11.9843,19.6441,11.688C19.333,11.3917,18.9243,11.2271,18.5,11.2273C18.5,11.2273,18.5,11.2273,18.5,11.2273Z" fill="url(#master_svg1_0_131)" fill-opacity="1"/></g></g></svg>