<svg xmlns="http://www.w3.org/2000/svg" width="32" height="32" class="icon" viewBox="0 0 1024 1024"><path fill="#23a0f0" d="M512 0C229.257 0 0 229.257 0 512s229.257 512 512 512 512-229.257 512-512S794.743 0 512 0m240.571 699.886c-13.142 1.6-51.314-60.229-51.314-60.229 0 35.772-18.514 82.514-58.4 116.343 19.314 5.943 62.743 21.943 52.457 39.314-8.343 14.057-143.543 9.029-182.628 4.572-39.086 4.343-174.286 9.485-182.629-4.572-10.4-17.371 33.029-33.371 52.343-39.314-40-33.714-58.4-80.457-58.4-116.343 0 0-38.171 61.829-51.314 60.229-6.172-.8-14.172-33.829 10.743-113.943C295.2 548.229 308.57 516.8 329.37 465.029c-3.542-133.6 51.772-245.715 183.315-245.715 130.171 0 186.628 109.829 183.314 245.715 20.686 51.657 34.171 83.2 45.943 120.914 24.8 80.114 16.686 113.257 10.628 113.943"/></svg>