<svg xmlns="http://www.w3.org/2000/svg" width="32" height="32" class="icon" viewBox="0 0 1024 1024"><path d="M690.745 869.604h-358.4c-45.767 0-83.001-37.064-83.001-82.404V289.877a27.59 27.59 0 0 1 27.648-27.648h469.22a27.59 27.59 0 0 1 27.648 27.648v497.21a82.916 82.916 0 0 1-83.115 82.488zM304.64 317.61V787.2c0 15.019 12.373 27.108 27.648 27.108h358.485a27.39 27.39 0 0 0 27.648-27.108V317.582H304.64zm520.533 0H197.86a27.591 27.591 0 1 1 0-55.296h627.313a27.591 27.591 0 1 1 0 55.296m-175.274 0H373.19c-8.818 0-17.067-4.182-22.215-11.293a27.56 27.56 0 0 1-4.181-24.547l34.474-112.185a27.705 27.705 0 0 1 26.397-19.542h207.559c12.174 0 22.84 7.908 26.396 19.57l34.674 112.157a27.5 27.5 0 0 1-4.181 24.547 27.3 27.3 0 0 1-22.215 11.293M410.68 262.229h201.785l-17.494-56.889h-166.77zm27.136 479.005a27.59 27.59 0 0 1-27.648-27.648V418.219a27.591 27.591 0 1 1 55.296 0v295.196a27.876 27.876 0 0 1-27.648 27.819m147.541 0a27.59 27.59 0 0 1-27.648-27.648V418.219a27.591 27.591 0 1 1 55.296 0v295.196a27.76 27.76 0 0 1-27.648 27.819"/></svg>