<svg xmlns="http://www.w3.org/2000/svg" xmlns:xlink="http://www.w3.org/1999/xlink" fill="none" version="1.1" width="16.689842224121094" height="16.689842224121094" viewBox="0 0 16.689842224121094 16.689842224121094"><g><path d="M12.8333,7.33333C12.8333,10.3709,10.3709,12.8333,7.33333,12.8333C7.33333,12.8333,7.33333,14.6667,7.33333,14.6667C11.3834,14.6667,14.6667,11.3834,14.6667,7.33333C14.6667,7.33333,12.8333,7.33333,12.8333,7.33333C12.8333,7.33333,12.8333,7.33333,12.8333,7.33333ZM7.33333,12.8333C4.29577,12.8333,1.83333,10.3709,1.83333,7.33333C1.83333,7.33333,0,7.33333,0,7.33333C0,11.3834,3.28324,14.6667,7.33333,14.6667C7.33333,14.6667,7.33333,12.8333,7.33333,12.8333C7.33333,12.8333,7.33333,12.8333,7.33333,12.8333ZM1.83333,7.33333C1.83333,4.29577,4.29577,1.83333,7.33333,1.83333C7.33333,1.83333,7.33333,0,7.33333,0C3.28324,0,0,3.28324,0,7.33333C0,7.33333,1.83333,7.33333,1.83333,7.33333C1.83333,7.33333,1.83333,7.33333,1.83333,7.33333ZM7.33333,1.83333C10.3709,1.83333,12.8333,4.29577,12.8333,7.33333C12.8333,7.33333,14.6667,7.33333,14.6667,7.33333C14.6667,3.28324,11.3834,0,7.33333,0C7.33333,0,7.33333,1.83333,7.33333,1.83333C7.33333,1.83333,7.33333,1.83333,7.33333,1.83333ZM12.6435,13.9398C12.6435,13.9398,15.3935,16.6898,15.3935,16.6898C15.3935,16.6898,16.6898,15.3935,16.6898,15.3935C16.6898,15.3935,13.9398,12.6435,13.9398,12.6435C13.9398,12.6435,12.6435,13.9398,12.6435,13.9398C12.6435,13.9398,12.6435,13.9398,12.6435,13.9398Z" fill="#E8CDA7" fill-opacity="1"/></g></svg>