<svg xmlns="http://www.w3.org/2000/svg" width="125" height="124.969" fill="none"><path fill="#EBF5F3" d="m29.374 105.157-9.561-9.562 14.953-14.951 9.56 9.56z"/><path fill="#A2C3B8" d="m38.24 94.556-7.826-7.827a4.73 4.73 0 0 1 0-6.687l6.66-6.66 14.513 14.514-6.66 6.66a4.73 4.73 0 0 1-6.686 0"/><path fill="#6D8C82" d="m2.577 123.302-.91-.91a5.69 5.69 0 0 1 0-8.047l2.15-2.15 8.958 8.958-2.15 2.15a5.69 5.69 0 0 1-8.048 0"/><path fill="#A2C3B8" d="m6.424 121.636-3.09-3.09a6.49 6.49 0 0 1 0-9.176l12.128-12.13a6.49 6.49 0 0 1 9.176 0l3.09 3.091a6.49 6.49 0 0 1 0 9.177L15.6 121.636a6.49 6.49 0 0 1-9.176 0"/><path fill="#C6DCD5" d="M125 50.287q0 1.234-.06 2.467-.061 1.233-.182 2.462-.121 1.228-.302 2.45-.181 1.22-.422 2.431-.24 1.211-.54 2.408-.3 1.198-.66 2.38-.357 1.18-.773 2.343-.416 1.162-.889 2.303-.472 1.14-1 2.256t-1.11 2.205-1.216 2.147-1.32 2.086-1.422 2.018-1.518 1.945q-.783.955-1.612 1.87-.83.914-1.702 1.787-.873.873-1.788 1.702t-1.869 1.612-1.946 1.518-2.018 1.422q-1.026.685-2.085 1.32t-2.147 1.217q-1.09.582-2.205 1.11-1.116.527-2.257 1-1.14.472-2.302.888t-2.344.774-2.379.659-2.408.54-2.432.422-2.45.302-2.461.182-2.467.061-2.468-.061-2.461-.182-2.45-.302-2.432-.422q-1.21-.24-2.408-.54t-2.379-.659-2.344-.774q-1.162-.416-2.302-.888t-2.257-1-2.204-1.11q-1.09-.582-2.148-1.217t-2.085-1.32-2.018-1.422q-.992-.735-1.946-1.518t-1.87-1.612q-.914-.83-1.787-1.702-.872-.873-1.702-1.788-.829-.914-1.612-1.869-.783-.954-1.518-1.945-.736-.992-1.421-2.018-.686-1.027-1.32-2.086-.636-1.058-1.217-2.147t-1.11-2.205q-.528-1.116-1-2.256-.473-1.14-.889-2.303-.416-1.162-.774-2.344t-.658-2.379-.541-2.408q-.24-1.21-.422-2.432-.181-1.22-.302-2.45-.121-1.228-.182-2.46-.06-1.234-.06-2.468 0-1.235.06-2.468t.182-2.461.302-2.45.422-2.432q.24-1.21.54-2.408t.659-2.379.774-2.343.889-2.303 1-2.257 1.11-2.204q.581-1.089 1.216-2.148t1.32-2.085q.686-1.026 1.422-2.018t1.518-1.946 1.612-1.869 1.702-1.787 1.788-1.702 1.869-1.612q.954-.784 1.946-1.519.991-.735 2.018-1.421t2.085-1.32 2.148-1.217q1.088-.582 2.204-1.11t2.257-1 2.302-.888 2.344-.775 2.379-.658q1.197-.3 2.408-.54 1.21-.242 2.432-.423 1.221-.18 2.45-.302 1.228-.12 2.461-.181T74.714 0t2.467.06q1.233.061 2.461.182 1.229.121 2.45.302t2.432.422q1.21.241 2.408.541t2.379.658 2.344.775q1.162.415 2.302.888 1.14.472 2.257 1 1.116.528 2.205 1.11t2.147 1.216 2.085 1.32 2.018 1.422q.992.735 1.946 1.519t1.869 1.612 1.788 1.702 1.702 1.787 1.612 1.87q.783.953 1.518 1.945.736.992 1.421 2.018.686 1.026 1.32 2.085.636 1.059 1.217 2.148.582 1.088 1.11 2.204t1 2.257.889 2.303.774 2.343q.358 1.182.658 2.38t.541 2.407.422 2.432q.18 1.221.302 2.45.12 1.228.182 2.461.06 1.233.06 2.468"/><path fill="#DAE8E3" d="M117.47 50.287q0 1.05-.052 2.098t-.155 2.093-.257 2.082q-.154 1.039-.358 2.068-.205 1.03-.46 2.048t-.56 2.022-.658 1.993-.756 1.958-.85 1.918-.943 1.875q-.495.925-1.035 1.826-.54.9-1.123 1.772-.583.873-1.208 1.716t-1.291 1.655-1.37 1.589q-.706.777-1.448 1.52-.742.742-1.52 1.447-.777.704-1.589 1.37t-1.654 1.291q-.843.626-1.716 1.209t-1.773 1.122-1.826 1.035-1.874.943-1.919.85-1.958.756-1.992.658-2.023.56-2.047.46-2.068.359-2.083.256-2.093.155q-1.048.051-2.098.051t-2.097-.051q-1.049-.052-2.093-.155-1.045-.102-2.083-.256t-2.068-.36-2.047-.459q-1.018-.255-2.023-.56-1.004-.304-1.992-.658-.989-.354-1.958-.755-.97-.402-1.919-.85-.949-.45-1.874-.944-.926-.495-1.826-1.035t-1.773-1.122-1.716-1.209-1.654-1.29q-.812-.667-1.59-1.371-.777-.705-1.52-1.447-.741-.743-1.446-1.52-.705-.778-1.371-1.59-.666-.81-1.291-1.654t-1.209-1.716-1.122-1.772q-.54-.9-1.035-1.826t-.943-1.875-.85-1.918-.756-1.958-.658-1.993-.56-2.022-.46-2.048-.358-2.068-.257-2.082-.155-2.093q-.051-1.049-.051-2.098 0-1.05.051-2.098.052-1.048.155-2.093t.257-2.083.358-2.067.46-2.048.56-2.023.658-1.992.755-1.958.85-1.919.944-1.874 1.035-1.826 1.122-1.773q.584-.873 1.209-1.716t1.29-1.654 1.372-1.59 1.447-1.519T46 18.607t1.589-1.37q.811-.667 1.654-1.292t1.716-1.208q.872-.583 1.773-1.123t1.826-1.034 1.874-.944 1.919-.85 1.958-.756q.988-.353 1.992-.658 1.005-.304 2.023-.56 1.018-.255 2.047-.46 1.03-.204 2.068-.358t2.083-.257 2.093-.154 2.097-.052 2.098.052q1.049.051 2.093.154t2.083.257 2.068.359q1.03.204 2.047.46 1.018.255 2.023.56 1.004.304 1.992.657.989.354 1.958.756.97.401 1.919.85t1.874.944 1.826 1.034 1.773 1.123 1.716 1.208 1.654 1.291 1.59 1.371 1.52 1.447q.741.742 1.446 1.52t1.371 1.589 1.291 1.654 1.208 1.716 1.123 1.773 1.035 1.826.943 1.874q.449.95.85 1.919.402.97.756 1.958.353.988.658 1.992t.56 2.023.46 2.048q.204 1.029.358 2.067t.257 2.083.155 2.093q.051 1.048.051 2.098"/><path fill="#FFF" d="M113.48 50.74q0 .952-.046 1.901-.047.95-.14 1.897-.093.946-.233 1.887-.14.94-.325 1.874-.185.932-.416 1.855-.232.922-.508 1.832t-.596 1.806-.684 1.774-.771 1.738-.855 1.699-.937 1.654-1.017 1.607q-.529.79-1.095 1.554-.567.764-1.17 1.5-.603.735-1.242 1.44-.639.704-1.311 1.376-.673.673-1.377 1.311-.705.64-1.44 1.243t-1.5 1.17q-.763.566-1.554 1.094-.79.529-1.606 1.018t-1.655.937-1.698.855-1.738.77q-.88.364-1.774.685-.896.32-1.806.596t-1.833.507q-.922.231-1.855.417t-1.873.325-1.887.233-1.897.14-1.9.046-1.901-.046-1.897-.14-1.887-.233-1.873-.325-1.856-.417q-.922-.23-1.832-.507-.91-.276-1.806-.596-.895-.32-1.774-.685-.878-.364-1.738-.77t-1.699-.855-1.654-.937q-.816-.49-1.606-1.018t-1.555-1.095-1.5-1.17-1.439-1.242-1.377-1.31q-.672-.673-1.311-1.378t-1.242-1.44-1.17-1.499-1.095-1.554-1.017-1.607-.937-1.654q-.449-.839-.855-1.699-.407-.86-.77-1.738-.365-.879-.685-1.774t-.597-1.806q-.276-.91-.507-1.832-.23-.923-.416-1.855-.186-.933-.325-1.874-.14-.94-.233-1.887t-.14-1.896T36 50.74t.047-1.901.14-1.897q.093-.946.233-1.887.14-.94.325-1.873t.416-1.856.507-1.832.597-1.806.684-1.774.77-1.738.856-1.699.937-1.654 1.017-1.607 1.095-1.554 1.17-1.5 1.242-1.439 1.31-1.377 1.378-1.311 1.44-1.242q.735-.604 1.499-1.17.764-.567 1.555-1.095t1.606-1.017 1.654-.938q.84-.448 1.699-.854.86-.407 1.738-.771.879-.364 1.774-.684.896-.32 1.806-.597t1.832-.507 1.856-.417 1.873-.325q.94-.14 1.887-.232.947-.094 1.897-.14t1.9-.047 1.901.047q.95.046 1.897.14.946.093 1.887.232.94.14 1.873.325.933.186 1.855.417.923.231 1.833.507t1.806.597 1.774.684 1.738.77 1.698.855q.84.449 1.655.938t1.606 1.017 1.555 1.095 1.499 1.17 1.44 1.242q.704.638 1.377 1.31.672.673 1.31 1.378.64.705 1.243 1.44t1.17 1.499q.566.764 1.095 1.555.528.79 1.017 1.606t.937 1.654q.448.84.855 1.699t.77 1.738q.365.879.685 1.774.32.896.596 1.806t.508 1.832.416 1.856.325 1.873.233 1.887.14 1.897.047 1.9"/><path fill="#C6DCD5" d="M58 32h36a4 4 0 0 1 4 4v7a4 4 0 0 1-4 4H58a4 4 0 0 1-4-4v-7a4 4 0 0 1 4-4"/><path fill="#EBF5F3" d="M55.5 55h41a1.5 1.5 0 0 1 0 3h-41a1.5 1.5 0 1 1 0-3m0 8h29a1.5 1.5 0 0 1 0 3h-29a1.5 1.5 0 1 1 0-3"/></svg>