<svg xmlns="http://www.w3.org/2000/svg" width="32" height="32" class="icon" viewBox="0 0 1024 1024"><path fill="#373838" d="M970.961 924.672 828.65 782.359c77.614-83.176 125.533-194.42 125.533-316.904C954.182 208.78 745.402 0 488.727 0 232.076 0 23.273 208.78 23.273 465.455c0 92.276 27.066 181.597 78.312 258.234 10.706 16.081 32.373 20.294 48.408 9.635 16.035-10.706 20.34-32.373 9.635-48.408-43.52-65.14-66.537-141.01-66.537-219.461 0-218.159 177.478-395.637 395.636-395.637s395.637 177.478 395.637 395.637c0 218.158-177.478 395.636-395.637 395.636-78.731 0-154.787-23.133-219.997-66.863-15.988-10.682-37.678-6.47-48.454 9.542-10.728 16.012-6.446 37.702 9.542 48.454 76.754 51.48 166.284 78.685 258.91 78.685 92.16 0 177.92-27.276 250.274-73.658l149.69 149.69A58.02 58.02 0 0 0 929.815 1024c14.895 0 29.79-5.702 41.146-17.059 22.738-22.714 22.738-59.532 0-82.269M247.552 396.695c25.95-100.631 109.359-174.01 212.503-186.926 19.13-2.397 32.698-19.852 30.301-38.982s-19.99-32.722-38.981-30.301c-131.747 16.5-238.267 110.243-271.407 238.801-4.817 18.665 6.4 37.702 25.088 42.496a34 34 0 0 0 8.727 1.117c15.546 0 29.72-10.45 33.769-26.205"/></svg>