<svg xmlns="http://www.w3.org/2000/svg" xmlns:xlink="http://www.w3.org/1999/xlink" fill="none" version="1.1" width="22" height="22" viewBox="0 0 22 22"><defs><clipPath id="master_svg0_0_14"><rect x="0" y="0" width="22" height="22" rx="0"/></clipPath></defs><g clip-path="url(#master_svg0_0_14)"><g><path d="M7.402925234222412,2.75L14.554125234222411,2.75C15.328025234222412,2.75,16.041425234222412,3.1629,16.428325234222413,3.83089L20.00402523422241,10.02656C20.39092523422241,10.69455,20.39092523422241,11.52034,20.00402523422241,12.18829L16.428325234222413,18.3819C16.041425234222412,19.0498,15.328025234222412,19.4627,14.556225234222412,19.4627L7.402925234222412,19.4627C6.631175234222412,19.4627,5.917785234222412,19.0498,5.530825234222412,18.3819L1.9552442342224121,12.18618C1.568285534222412,11.51818,1.568285534222412,10.69238,1.9552442342224121,10.0244L5.530825234222412,3.83089C5.917785234222412,3.1629,6.631175234222412,2.75,7.402925234222412,2.75ZM14.928125234222412,4.6956C14.852425234222412,4.56158,14.707525234222413,4.47942,14.554125234222411,4.47942L7.4007752342224125,4.47942C7.247285234222412,4.47942,7.104605234222412,4.56158,7.026785234222412,4.6956L3.4511952342224124,10.88911C3.3733752342224124,11.02313,3.3733752342224124,11.18743,3.4511952342224124,11.32146L7.028945234222412,17.517200000000003C7.104605234222412,17.6512,7.249445234222412,17.7333,7.402925234222412,17.7333L14.556225234222412,17.7333C14.709725234222413,17.7333,14.852425234222412,17.6512,14.930225234222412,17.517200000000003L18.50362523422241,11.32146C18.58152523422241,11.18743,18.58152523422241,11.02313,18.50362523422241,10.88911L14.928125234222412,4.6956ZM6.966265234222412,11.10528C6.966265234222412,8.88946,8.762705234222413,7.09302,10.978525234222412,7.09302C13.194325234222411,7.09302,14.990825234222411,8.88946,14.990825234222411,11.10528C14.990825234222411,13.3211,13.194325234222411,15.1175,10.978525234222412,15.1175C8.762705234222413,15.1175,6.966265234222412,13.3211,6.966265234222412,11.10528ZM13.261325234222411,11.10528C13.261325234222411,9.84713,12.236725234222412,8.82244,10.978525234222412,8.82244C9.720375234222413,8.82244,8.695685234222413,9.84713,8.695685234222413,11.10528C8.695685234222413,12.36343,9.718205234222411,13.3881,10.978525234222412,13.3881C12.238825234222412,13.3881,13.261325234222411,12.36343,13.261325234222411,11.10528Z" fill-rule="evenodd" fill="#E8CDA7" fill-opacity="1"/></g></g></svg>