<svg xmlns="http://www.w3.org/2000/svg" width="32" height="32" class="icon" viewBox="0 0 1063 1024"><path d="M430.843 334.979a463 463 0 0 0-69.175 173.753 45.753 45.753 0 0 0 38.672 51.745h6.537a46.3 46.3 0 0 0 45.208-38.673 381.3 381.3 0 0 1 56.647-140.527 298.49 298.49 0 0 1 262.536-132.358h4.358a45.753 45.753 0 0 0 45.753-45.753v-54.468L949.923 272.34 821.38 381.277v-43.575a45.753 45.753 0 0 0-91.507 0v141.072a45.75 45.75 0 0 0 26.69 41.396 44.1 44.1 0 0 0 19.064 4.358 45.75 45.75 0 0 0 28.868-10.35l242.927-202.076a46.3 46.3 0 0 0 0-68.085l-240.75-231.49a45.753 45.753 0 0 0-76.8 33.226v117.651a384.55 384.55 0 0 0-299.03 171.575m477.14 268.527a45.753 45.753 0 0 0-45.753 45.754v260.357a23.966 23.966 0 0 1-23.966 23.966H114.928a23.966 23.966 0 0 1-23.966-23.966v-749.48a23.966 23.966 0 0 1 23.966-23.967h326.808a45.753 45.753 0 1 0 0-91.506H114.928A114.93 114.93 0 0 0 0 159.59v749.481A114.93 114.93 0 0 0 114.928 1024h723.88a114.93 114.93 0 0 0 114.928-114.928V649.26a45.753 45.753 0 0 0-45.753-45.754"/></svg>