<svg xmlns="http://www.w3.org/2000/svg" width="25.126" height="23"><path fill-rule="evenodd" d="M4.835 1.324A1.59 1.59 0 0 0 3.265 0H1.013L.831.016a1.014 1.014 0 0 0 .182 2.01h1.218c.387 0 .719.28.784.663l2.357 13.776c.13.764.794 1.323 1.57 1.323h15.092c.79 0 1.46-.578 1.575-1.359l1.5-10.14a1.593 1.593 0 0 0-1.575-1.825H6.043a.796.796 0 0 1-.785-.662zM22.11 6.49H6.661a.796.796 0 0 0-.795.797l.01.134L7.192 15.1a.796.796 0 0 0 .784.661h13.002c.395 0 .73-.289.788-.68L22.9 7.403a.796.796 0 0 0-.672-.904zM8.697 23q.086 0 .171-.008t.169-.025.165-.042.161-.057.154-.073q.076-.04.147-.088t.137-.102.126-.114.115-.127.102-.137.088-.146.073-.155.057-.16.041-.166q.017-.084.026-.169t.008-.17-.008-.171-.026-.169-.04-.165q-.026-.082-.058-.161-.033-.08-.073-.154-.04-.076-.088-.147t-.102-.137-.115-.127-.126-.114-.137-.102-.147-.088-.154-.073-.16-.057-.166-.042q-.084-.016-.169-.025-.085-.008-.17-.008t-.171.008-.169.025-.165.042-.161.057q-.08.033-.155.073t-.146.088-.137.102-.127.114-.114.127-.102.137-.088.146-.073.155-.057.16-.042.166-.025.169-.008.17.008.171.025.169.042.165.057.161q.033.08.073.155t.088.146.102.137.114.127.127.114.137.102.146.088.155.073.16.057.166.042q.084.016.169.025.085.008.17.008m11.597 0q.086 0 .17-.008.086-.009.17-.025.083-.017.165-.042t.16-.057q.08-.033.155-.073t.146-.088.138-.102.126-.114q.06-.06.115-.127.054-.066.102-.137t.087-.146.073-.155.058-.16T22 21.6t.025-.169q.009-.085.009-.17t-.009-.171-.025-.169-.041-.165-.058-.161-.073-.154q-.04-.076-.087-.147-.048-.071-.102-.137t-.115-.127-.126-.114-.137-.102-.147-.088-.154-.073-.16-.057q-.083-.025-.166-.042-.084-.016-.17-.025-.084-.008-.17-.008-.085 0-.17.008t-.17.025-.165.042-.16.057q-.08.033-.155.073t-.146.088-.137.102-.127.114-.114.127q-.055.066-.102.137-.048.071-.088.146-.04.076-.073.155t-.058.16-.041.166-.025.169-.008.17.008.171.025.169.041.165.058.161.073.155.088.146.102.137.114.127.127.114.137.102q.07.047.146.088t.154.073q.08.032.161.057.082.025.166.042.084.016.169.025.085.008.17.008"/></svg>