<svg xmlns="http://www.w3.org/2000/svg" width="24" height="24" fill="none"><path fill="#FFF" fill-rule="evenodd" d="M9.98 4.179c0-.504-.4-.796-.783-.778H5.863l-.167.005A2.44 2.44 0 0 0 3.4 5.863v3.34l.01.105c.052.379.309.674.769.674.501 0 .77-.37.778-.777V5.858l.007-.118c.056-.462.435-.774.896-.783h3.342l.086-.001a.763.763 0 0 0 .692-.777m8.154-.779a2.47 2.47 0 0 1 2.456 2.305l.005.158v3.349c-.016.421-.275.775-.778.775-.463 0-.722-.298-.774-.678l-.009-.106V5.857a.876.876 0 0 0-.795-.894l-.106-.006h-3.36c-.397-.015-.754-.224-.762-.777-.008-.524.337-.745.69-.776l.088-.004zm-.892 8.598a.78.78 0 0 0-.77-.779H7.53l-.11.01a.794.794 0 0 0-.667.769c0 .399.324.773.777.778h8.932l.112-.007a.776.776 0 0 0 .667-.771M4.179 14.009c.46 0 .727.315.775.686l.008.102v3.345c0 .49.34.84.787.894l.114.007h3.342c.406-.008.78.27.78.779 0 .458-.308.723-.677.77l-.102.008H5.863a2.446 2.446 0 0 1-2.457-2.296l-.006-.167v-3.345a.75.75 0 0 1 .666-.776zm15.638.005c.459 0 .737.327.774.683l.004.09.005.005v3.34c0 1.229-1.09 2.368-2.31 2.458l-.152.005H14.79c-.414-.017-.774-.278-.774-.778 0-.453.311-.715.677-.769l.101-.01h3.344c.531 0 .85-.277.895-.772l.006-.129v-3.345c0-.385.28-.778.778-.778"/></svg>