<svg xmlns="http://www.w3.org/2000/svg" xmlns:xlink="http://www.w3.org/1999/xlink" fill="none" version="1.1" width="18.33329963684082" height="16.5" viewBox="0 0 18.33329963684082 16.5"><g><path d="M1.54191,16.5C0.677436,16.5,0,15.8288,0,14.9718C0,14.9718,0,9.39785,0,9.39785C0,9.05759,0.432625,8.19423,1.27048,8.06684C1.27048,8.06684,1.2834,1.52812,1.2834,1.52812C1.2834,0.699801,1.9882,0,2.82226,0C2.82226,0,15.5102,0,15.5102,0C16.3588,0,17.0499,0.685489,17.0499,1.52812C17.0499,1.52812,17.0499,8.05177,17.0499,8.05177C17.8383,8.18064,18.3333,9.00483,18.3333,9.39785C18.3333,9.39785,18.3333,14.9719,18.3333,14.9719C18.3333,15.7067,17.7433,16.5,16.7914,16.5C16.7914,16.5,1.54191,16.5,1.54191,16.5C1.54191,16.5,1.54191,16.5,1.54191,16.5C1.54191,16.5,1.54191,16.5,1.54191,16.5ZM1.66127,14.9341C1.66127,14.9341,16.618,14.9496,16.618,14.9496C16.618,14.9496,16.6333,13.9984,16.6333,13.9984C16.6333,13.9984,16.6333,9.61006,16.6333,9.61006C16.6333,9.61006,13.2142,9.59457,13.2142,9.59457C13.2142,9.59457,13.199,10.5458,13.199,10.5458C13.199,11.287,12.5337,11.8904,11.7156,11.8904C11.7156,11.8904,6.59034,11.8904,6.59034,11.8904C5.77226,11.8904,5.10699,11.287,5.10699,10.5458C5.10699,10.5458,5.10699,9.61006,5.10699,9.61006C5.10699,9.61006,1.66356,9.59457,1.66356,9.59457C1.66356,9.59457,1.66127,14.9341,1.66127,14.9341C1.66127,14.9341,1.66127,14.9341,1.66127,14.9341C1.66127,14.9341,1.66127,14.9341,1.66127,14.9341ZM2.95608,8.02878C2.95608,8.02878,4.29726,8.04121,4.29726,8.04121C4.63711,8.04121,4.98458,8.04196,5.26514,8.04423C6.31132,8.05291,6.79867,8.96638,6.79867,9.581C6.79867,9.581,6.79867,10.3336,6.79867,10.3336C6.79867,10.3336,11.5103,10.3491,11.5103,10.3491C11.5103,10.3491,11.5255,9.581,11.5255,9.581C11.5255,8.95283,12.0836,8.04423,13.091,8.04423C13.091,8.04423,15.3521,8.04423,15.3521,8.04423C15.3521,8.04423,15.359,1.54809,15.359,1.54809C15.359,1.54809,2.97131,1.53265,2.97131,1.53265C2.97131,1.53265,2.95608,8.02878,2.95608,8.02878C2.95608,8.02878,2.95608,8.02878,2.95608,8.02878C2.95608,8.02878,2.95608,8.02878,2.95608,8.02878Z" fill="#FFFFFF" fill-opacity="1"/></g></svg>