<svg xmlns="http://www.w3.org/2000/svg" xmlns:xlink="http://www.w3.org/1999/xlink" fill="none" version="1.1" width="16.5" height="17.90519905090332" viewBox="0 0 16.5 17.90519905090332"><g><path d="M8.25,0C3.69463,0,0,0.925372,0,2.06662C0,2.06662,0,15.8166,0,15.84C0,16.9798,3.69463,17.9052,8.25,17.9052C12.0106,17.9052,15.1786,17.2741,16.1714,16.412C16.3639,16.2896,16.5,16.0847,16.5,15.8386C16.5,15.8386,16.5,2.06524,16.5,2.06524C16.5,0.923997,12.8054,0,8.25,0C8.25,0,8.25,0,8.25,0ZM8.25,1.37637C11.0261,1.37637,13.0597,1.71737,14.2216,2.06524C13.0597,2.41174,11.0261,2.75412,8.25,2.75412C5.47388,2.75412,3.44025,2.41174,2.27838,2.06524C3.44025,1.71874,5.47388,1.37637,8.25,1.37637C8.25,1.37637,8.25,1.37637,8.25,1.37637ZM15.125,15.1497C14.9243,15.6667,14.2216,15.8386,14.2216,15.8386C13.0597,16.1851,11.0261,16.5275,8.25,16.5275C5.47388,16.5275,3.44025,16.1851,2.27838,15.8386C1.375,15.5512,1.375,15.1497,1.375,15.1497C1.375,15.1497,1.375,3.20787,1.375,3.20787C2.85175,3.76336,5.379,4.13186,8.25,4.13186C11.121,4.13186,13.6483,3.76336,15.125,3.20787C15.125,3.20787,15.125,15.1497,15.125,15.1497C15.125,15.1497,15.125,15.1497,15.125,15.1497Z" fill="#FFFFFF" fill-opacity="1"/></g></svg>