<svg xmlns="http://www.w3.org/2000/svg" xmlns:xlink="http://www.w3.org/1999/xlink" fill="none" version="1.1" width="18.333301544189453" height="16.5" viewBox="0 0 18.333301544189453 16.5"><g><path d="M8.622,16.2805C8.622,16.2805,5.79485,13.4979,5.79485,13.4979C5.79485,13.4979,1.52931,13.4979,1.52931,13.4979C1.32839,13.4982,1.12939,13.4596,0.943707,13.3842C0.758029,13.3089,0.58932,13.1983,0.447251,13.0588C0.305183,12.9193,0.192546,12.7537,0.115799,12.5714C0.0390506,12.389,-0.000300029,12.1937,0.00000172235,11.9964C0.00000172235,11.9964,0.0076406,1.50077,0.0076406,1.50077C0.0076406,0.669759,0.687501,0,1.53694,0C1.53694,0,16.8048,0,16.8048,0C17.6497,0,18.334,0.669759,18.3333,1.50152C18.3333,1.50152,18.3257,11.9979,18.3257,11.9979C18.3257,12.8266,17.6412,13.4979,16.7972,13.4979C16.7972,13.4979,12.54,13.4979,12.54,13.4979C12.54,13.4979,9.70134,16.2805,9.70134,16.2805C9.63048,16.35,9.54633,16.4053,9.45375,16.443C9.36117,16.4806,9.26189,16.5,9.16168,16.5C9.06145,16.5,8.96221,16.4806,8.86961,16.443C8.777,16.4053,8.69286,16.35,8.622,16.2805C8.622,16.2805,8.622,16.2805,8.622,16.2805C8.622,16.2805,8.622,16.2805,8.622,16.2805ZM16.7986,11.9964C16.7986,11.9964,16.8055,1.50077,16.8055,1.50077C16.8055,1.50077,1.53541,1.49852,1.53541,1.50152C1.53541,1.50152,1.52854,11.9972,1.53007,11.9972C1.53007,11.9972,6.1111,11.9972,6.1111,11.9972C6.31353,11.9972,6.50832,12.0759,6.65117,12.2169C6.65117,12.2169,9.1636,14.6889,9.1636,14.6889C9.1636,14.6889,11.6845,12.2161,11.6845,12.2161C11.7554,12.1467,11.8396,12.0915,11.9322,12.0539C12.0249,12.0163,12.1243,11.9971,12.2245,11.9972C12.2245,11.9972,16.7986,11.9972,16.7986,11.9972C16.7986,11.9972,16.7986,11.9964,16.7986,11.9964C16.7986,11.9964,16.7986,11.9964,16.7986,11.9964ZM4.96527,8.25011C4.66138,8.25011,4.36994,8.13159,4.15504,7.92061C3.94016,7.70962,3.81944,7.42347,3.81944,7.12509C3.81944,6.82673,3.94016,6.54057,4.15504,6.32959C4.36994,6.11861,4.66138,6.00008,4.96527,6.00008C5.26917,6.00008,5.56061,6.11861,5.77549,6.32959C5.99038,6.54057,6.1111,6.82673,6.1111,7.12509C6.1111,7.42347,5.99038,7.70962,5.77549,7.92061C5.56061,8.13159,5.26917,8.25011,4.96527,8.25011C4.96527,8.25011,4.96527,8.25011,4.96527,8.25011ZM9.16665,8.25011C8.86276,8.25011,8.57131,8.13159,8.35643,7.92061C8.14154,7.70962,8.02082,7.42347,8.02082,7.12509C8.02082,6.82673,8.14154,6.54057,8.35643,6.32959C8.57131,6.11861,8.86276,6.00008,9.16665,6.00008C9.47053,6.00008,9.76202,6.11861,9.97689,6.32959C10.1918,6.54057,10.3125,6.82673,10.3125,7.12509C10.3125,7.42347,10.1918,7.70962,9.97689,7.92061C9.76202,8.13159,9.47053,8.25011,9.16665,8.25011C9.16665,8.25011,9.16665,8.25011,9.16665,8.25011C9.16665,8.25011,9.16665,8.25011,9.16665,8.25011ZM13.368,8.25011C13.0641,8.25011,12.7727,8.13159,12.5579,7.92061C12.3429,7.70962,12.2222,7.42347,12.2222,7.12509C12.2222,6.82673,12.3429,6.54057,12.5579,6.32959C12.7727,6.11861,13.0641,6.00008,13.368,6.00008C13.672,6.00008,13.9634,6.11861,14.1782,6.32959C14.3931,6.54057,14.5138,6.82673,14.5138,7.12509C14.5138,7.42347,14.3931,7.70962,14.1782,7.92061C13.9634,8.13159,13.672,8.25011,13.368,8.25011C13.368,8.25011,13.368,8.25011,13.368,8.25011Z" fill="#FFFFFF" fill-opacity="1"/></g></svg>