<svg xmlns="http://www.w3.org/2000/svg" xmlns:xlink="http://www.w3.org/1999/xlink" fill="none" version="1.1" width="18.33329963684082" height="18.33329963684082" viewBox="0 0 18.33329963684082 18.33329963684082"><g><path d="M9.16665,18.3333C4.10408,18.3333,0,14.2292,0,9.16665C0,4.10408,4.10406,0,9.16665,0C14.2292,0,18.3333,4.10408,18.3333,9.16665C18.3333,14.2292,14.2292,18.3333,9.16665,18.3333C9.16665,18.3333,9.16665,18.3333,9.16665,18.3333C9.16665,18.3333,9.16665,18.3333,9.16665,18.3333ZM9.16665,1.66666C5.0245,1.66666,1.66666,5.02448,1.66666,9.16665C1.66666,13.3088,5.02448,16.6666,9.16665,16.6666C13.3088,16.6666,16.6666,13.3088,16.6666,9.16665C16.6666,5.02448,13.3088,1.66666,9.16665,1.66666C9.16665,1.66666,9.16665,1.66666,9.16665,1.66666C9.16665,1.66666,9.16665,1.66666,9.16665,1.66666ZM9.99999,10.7154C9.99999,10.7154,9.99999,11.6667,9.99999,11.6667C9.99999,11.6667,8.33332,11.6667,8.33332,11.6667C8.33332,11.6667,8.33332,9.99999,8.33332,9.99999C8.33332,9.53973,8.70641,9.16665,9.16665,9.16665C10.0872,9.16665,10.8333,8.42048,10.8333,7.49999C10.8333,6.57949,10.0872,5.83333,9.16665,5.83333C8.24615,5.83333,7.49999,6.57949,7.49999,7.49999C7.49999,7.80515,7.588,8.08732,7.73115,8.33332C7.73115,8.33332,5.95116,8.33332,5.95116,8.33332C5.88184,8.06549,5.83333,7.78948,5.83333,7.49999C5.83333,5.65908,7.32566,4.16667,9.16665,4.16667C11.0076,4.16667,12.5,5.65908,12.5,7.49999C12.5,9.0514,11.4351,10.3436,9.99999,10.7154C9.99999,10.7154,9.99999,10.7154,9.99999,10.7154C9.99999,10.7154,9.99999,10.7154,9.99999,10.7154ZM9.99999,14.1666C9.99999,14.1666,8.33332,14.1666,8.33332,14.1666C8.33332,14.1666,8.33332,12.5,8.33332,12.5C8.33332,12.5,9.99999,12.5,9.99999,12.5C9.99999,12.5,9.99999,14.1666,9.99999,14.1666C9.99999,14.1666,9.99999,14.1666,9.99999,14.1666Z" fill="#FFFFFF" fill-opacity="1"/></g></svg>