<svg xmlns="http://www.w3.org/2000/svg" xmlns:xlink="http://www.w3.org/1999/xlink" fill="none" version="1.1" width="14.721717834472656" height="16.93269920349121" viewBox="0 0 14.721717834472656 16.93269920349121"><g><path d="M13.1634,1.55835C12.6704,1.06294,12.0841,0.670147,11.4383,0.40267C10.7926,0.135195,10.1003,-0.00165987,9.40135,0.0000151925C9.40135,0.0000151925,2.20001,0.0000151925,2.20001,0.0000151925C0.986336,0.0000151925,0,0.986354,0,2.20002C0,2.20002,0,14.7327,0,14.7327C0,15.9464,0.986336,16.9327,2.20001,16.9327C2.20001,16.9327,12.5217,16.9327,12.5217,16.9327C13.7354,16.9327,14.7217,15.9464,14.7217,14.7327C14.7217,14.7327,14.7217,5.32403,14.7217,5.32403C14.7254,3.89769,14.1717,2.56302,13.1634,1.55835C13.1634,1.55835,13.1634,1.55835,13.1634,1.55835C13.1634,1.55835,13.1634,1.55835,13.1634,1.55835ZM13.255,14.729C13.255,15.1324,12.925,15.4624,12.5217,15.4624C12.5217,15.4624,2.20001,15.4624,2.20001,15.4624C1.79667,15.4624,1.46667,15.1324,1.46667,14.729C1.46667,14.729,1.46667,2.20002,1.46667,2.20002C1.46667,1.79669,1.79667,1.46669,2.20001,1.46669C2.20001,1.46669,9.40135,1.46669,9.40135,1.46669C10.4317,1.46669,11.3997,1.86636,12.1257,2.59602C12.8517,3.32569,13.255,4.29369,13.255,5.32403C13.255,5.32403,13.255,14.729,13.255,14.729C13.255,14.729,13.255,14.729,13.255,14.729Z" fill="#FFFFFF" fill-opacity="1"/></g></svg>