<svg xmlns="http://www.w3.org/2000/svg" xmlns:xlink="http://www.w3.org/1999/xlink" fill="none" version="1.1" width="19.662353515625" height="22.1214599609375" viewBox="0 0 19.662353515625 22.1214599609375"><g><path d="M9.83242,0C9.83242,0,15.9781,0,15.9781,0C15.9781,0,15.9781,6.14577,15.9781,6.14577C15.9781,7.36128,15.6177,8.5495,14.9424,9.56017C14.2671,10.5708,13.3073,11.3586,12.1843,11.8237C11.0613,12.2889,9.8256,12.4106,8.63344,12.1734C7.44128,11.9363,6.34621,11.351,5.48671,10.4915C4.6272,9.63198,4.04187,8.53691,3.80474,7.34474C3.5676,6.15258,3.68931,4.91687,4.15447,3.79388C4.61963,2.67089,5.40735,1.71105,6.41801,1.03575C7.42868,0.360443,8.6169,3.50914e-16,9.83242,0C9.83242,0,9.83242,0,9.83242,0ZM4.30115,13.5217C4.30115,13.5217,15.3638,13.5217,15.3638,13.5217C16.5038,13.5217,17.5972,13.9746,18.4034,14.7807C19.2095,15.5869,19.6624,16.6802,19.6624,17.8203C19.6624,17.8203,19.6624,18.4347,19.6624,18.4347C19.6624,19.4125,19.274,20.3502,18.5826,21.0416C17.8912,21.733,16.9535,22.1214,15.9757,22.1214C15.9757,22.1214,3.6867,22.1214,3.6867,22.1214C2.70893,22.1214,1.7712,21.733,1.07981,21.0416C0.388419,20.3502,6.46913e-14,19.4125,6.43403e-14,18.4347C6.43403e-14,18.4347,6.43403e-14,17.8203,6.43403e-14,17.8203C-9.77017e-8,17.2556,0.111271,16.6964,0.327455,16.1747C0.543639,15.653,0.860499,15.179,1.25993,14.7798C1.65936,14.3806,2.13354,14.064,2.65536,13.8482C3.17719,13.6323,3.73643,13.5213,4.30115,13.5217C4.30115,13.5217,4.30115,13.5217,4.30115,13.5217Z" fill="#494C52" fill-opacity="1"/></g></svg>