<svg xmlns="http://www.w3.org/2000/svg" xmlns:xlink="http://www.w3.org/1999/xlink" fill="none" version="1.1" width="23.999998092651367" height="24" viewBox="0 0 23.999998092651367 24"><g><path d="M24,12.0005C24,5.37228,18.6275,0,12,0C5.3725,0,0,5.37228,0,12.0005C0,18.6277,5.3725,24,12,24C18.6275,24,24,18.6277,24,12.0005ZM6.33894,12.0005C6.33894,8.87861,8.87799,6.34061,12,6.34061C15.122,6.34061,17.6592,8.87861,17.6591,12.0005C17.6591,15.1194,15.122,17.6604,12,17.6604C8.87801,17.6604,6.33894,15.1195,6.33894,12.0005ZM8.02778,12.0005C8.02778,9.80722,9.80569,8.02844,12,8.02844C14.1924,8.02844,15.9723,9.8072,15.9723,12.0005C15.9723,14.1938,14.1924,15.9726,12,15.9726C9.80569,15.9726,8.02778,14.1938,8.02778,12.0005ZM10.5997,12.0005C10.5997,12.7732,11.2273,13.4007,12,13.4007C12.7728,13.4007,13.4002,12.7732,13.4002,12.0005C13.4002,11.2268,12.7728,10.6003,12,10.6003C11.2273,10.6003,10.5997,11.2268,10.5997,12.0005Z" fill-rule="evenodd" fill="#FFFFFF" fill-opacity="1"/></g></svg>