<svg xmlns="http://www.w3.org/2000/svg" xmlns:xlink="http://www.w3.org/1999/xlink" fill="none" version="1.1" width="24.00004005432129" height="20" viewBox="0 0 24.00004005432129 20"><g><path d="M23.9664,5.713C23.9664,5.713,23.928,5.41653,23.928,5.41653C23.8826,5.13857,23.8201,4.86355,23.7408,4.593C23.503,3.7238,23.0663,2.91914,22.464,2.24007C22.4285,2.19378,22.3901,2.14977,22.3488,2.10831C21.7484,1.44161,21.0095,0.908563,20.1816,0.544942C19.3538,0.181321,18.4562,-0.00445619,17.549,0.0000811532C15.2787,0.0000811532,13.1476,0.875372,11.9957,2.1789C10.8437,0.875372,8.70782,0.0000811532,6.44232,0.0000811532C5.53519,-0.00445619,4.63758,0.181321,3.80972,0.544942C2.98187,0.908563,2.24293,1.44161,1.64252,2.10831C1.60129,2.14977,1.56282,2.19378,1.52733,2.24007C0.925006,2.91914,0.488378,3.7238,0.250584,4.593C0.17128,4.86355,0.108769,5.13857,0.0633921,5.41653C0.0633921,5.41653,0.0249938,5.713,0.0249938,5.713C0.00501791,5.91945,-0.00299472,6.12684,0.000994744,6.33417C0.0011347,6.54323,0.0123494,6.75214,0.0345934,6.96005C0.514573,12.6683,11.0741,19.4071,11.5205,19.6941C11.5205,19.6941,12.0005,20,12.0005,20C12.0005,20,12.4805,19.6941,12.4805,19.6941C12.9316,19.4118,23.4912,12.673,23.9664,6.96005C23.9886,6.75214,23.9998,6.54323,24,6.33417C24.0008,6.12666,23.9895,5.91927,23.9664,5.713C23.9664,5.713,23.9664,5.713,23.9664,5.713C23.9664,5.713,23.9664,5.713,23.9664,5.713Z" fill="#FFFFFF" fill-opacity="1"/></g></svg>