<svg xmlns="http://www.w3.org/2000/svg" xmlns:xlink="http://www.w3.org/1999/xlink" fill="none" version="1.1" width="18.33329963684082" height="18.33329963684082" viewBox="0 0 18.33329963684082 18.33329963684082"><g><path d="M15.2571,7.23504C15.8536,6.65732,16.1823,5.88903,16.1823,5.07174C16.1823,4.25445,15.8536,3.48598,15.2571,2.90845C15.2571,2.90845,13.1796,0.895848,13.1796,0.895848C12.5832,0.318321,11.79,0,10.9464,0C10.103,0,9.30947,0.318321,8.71329,0.896043C8.71329,0.896043,1.23934,8.13614,1.23934,8.13614C1.23934,8.13614,0.590762,15.1036,0.590762,15.1036C0.590762,15.1036,7.78369,14.4751,7.78369,14.4751C7.78369,14.4751,15.2571,7.23504,15.2571,7.23504C15.2571,7.23504,15.2571,7.23504,15.2571,7.23504C15.2571,7.23504,15.2571,7.23504,15.2571,7.23504ZM9.84947,1.99665C10.4543,1.41077,11.4387,1.41077,12.0435,1.99665C12.0435,1.99665,14.1209,4.00905,14.1209,4.00905C14.7257,4.59494,14.7257,5.54855,14.1209,6.13443C14.1209,6.13443,7.42116,12.6245,7.42116,12.6245C7.42116,12.6245,3.14993,8.48674,3.14993,8.48674C3.14993,8.48674,9.84947,1.99665,9.84947,1.99665C9.84947,1.99665,9.84947,1.99665,9.84947,1.99665ZM2.65973,10.2133C2.65973,10.2133,5.63904,13.0994,5.63904,13.0994C5.63904,13.0994,2.36425,13.3856,2.36425,13.3856C2.36425,13.3856,2.65973,10.2133,2.65973,10.2133C2.65973,10.2133,2.65973,10.2133,2.65973,10.2133C2.65973,10.2133,2.65973,10.2133,2.65973,10.2133ZM17.5298,16.7765C17.5298,16.7765,0.803541,16.7765,0.803541,16.7765C0.359717,16.7765,0,17.1251,0,17.5549C0,17.9846,0.359717,18.3333,0.803541,18.3333C0.803541,18.3333,17.5298,18.3333,17.5298,18.3333C17.9736,18.3333,18.3333,17.9846,18.3333,17.5549C18.3333,17.1251,17.9738,16.7765,17.5298,16.7765C17.5298,16.7765,17.5298,16.7765,17.5298,16.7765Z" fill="#FFFFFF" fill-opacity="1"/></g></svg>