<svg xmlns="http://www.w3.org/2000/svg" xmlns:xlink="http://www.w3.org/1999/xlink" fill="none" version="1.1" width="22" height="20" viewBox="0 0 22 20"><g><path d="M16.4861,10.7474C16.052,11.8465,14.9905,12.6247,13.7517,12.6247C12.5128,12.6247,11.4513,11.8465,11.0172,10.7474C10.5778,11.8465,9.50572,12.6247,8.25099,12.6247C7.01215,12.6247,5.95067,11.8465,5.51654,10.7474C5.07713,11.8465,4.00505,12.6247,2.75033,12.6247C2.4565,12.6247,2.17062,12.5792,1.90061,12.499C1.90061,12.499,1.90061,18.7164,1.90061,18.7164C1.90061,19.294,2.52798,20,3.09445,20C3.09445,20,18.9029,20,18.9029,20C19.4667,20,20.0967,19.294,20.0967,18.7164C20.0967,18.7164,20.0967,12.499,20.0967,12.499C19.8267,12.5792,19.5435,12.6247,19.247,12.6247C18.0002,12.6247,16.9255,11.8465,16.4861,10.7474C16.4861,10.7474,16.4861,10.7474,16.4861,10.7474ZM20.0517,2.78112C20.0517,2.78112,1.88738,2.78112,1.88738,2.78112C1.88738,2.78112,0,7.82458,0,7.82458C0,9.3328,1.2256,10.587,2.73445,10.587C4.24329,10.587,5.50066,9.36489,5.50066,7.82458C5.50066,9.3328,6.72627,10.587,8.23511,10.587C9.74395,10.587,11.0013,9.36489,11.0013,7.82458C11.0013,9.3328,12.2269,10.587,13.7358,10.587C15.2446,10.587,16.4676,9.36489,16.4676,7.82458C16.4676,9.3328,17.6932,10.587,19.2338,10.587C20.7426,10.587,22,9.36489,22,7.82458C22,7.82458,20.0517,2.78112,20.0517,2.78112C20.0517,2.78112,20.0517,2.78112,20.0517,2.78112C20.0517,2.78112,20.0517,2.78112,20.0517,2.78112ZM3.14475,1.92539C3.14475,1.92539,18.8579,1.92539,18.8579,1.92539C19.3926,1.92539,19.8003,1.50822,19.8003,0.962695C19.8003,0.417168,19.3926,0,18.8579,0C18.8579,0,3.14475,0,3.14475,0C2.61003,0,2.20238,0.417168,2.20238,0.962695C2.20238,1.50555,2.61003,1.92539,3.14475,1.92539C3.14475,1.92539,3.14475,1.92539,3.14475,1.92539C3.14475,1.92539,3.14475,1.92539,3.14475,1.92539Z" fill="#FFFFFF" fill-opacity="1"/></g></svg>