<svg xmlns="http://www.w3.org/2000/svg" xmlns:xlink="http://www.w3.org/1999/xlink" fill="none" version="1.1" width="13.333301544189453" height="11.66670036315918" viewBox="0 0 13.333301544189453 11.66670036315918"><g><path d="M11.9958,1.27467C11.9958,1.27467,11.9835,7.90656,11.9835,7.90656C11.9835,7.90656,9.42939,7.90238,9.42939,7.90238C9.25123,7.90208,9.08023,7.93431,8.91706,7.99926C8.75381,8.06424,8.60765,8.15718,8.47831,8.2778C8.47831,8.2778,6.66354,9.97828,6.66354,9.97828C6.66354,9.97828,4.8402,8.27184,4.8402,8.27184C4.78093,8.20651,4.71409,8.15055,4.64019,8.10396C4.56603,8.05741,4.48941,8.02021,4.41036,7.99189C4.33104,7.96384,4.24712,7.94035,4.15806,7.92193C4.06928,7.90325,3.97993,7.89371,3.89054,7.89332C3.89054,7.89332,1.3367,7.88913,1.3367,7.88913C1.3367,7.88913,1.34899,1.25724,1.34899,1.25724C1.34899,1.25724,11.9952,1.27465,11.9952,1.27465C11.9952,1.27465,11.9958,1.27467,11.9958,1.27467C11.9958,1.27467,11.9958,1.27467,11.9958,1.27467ZM12.2948,0.0183964C12.2948,0.0183964,1.05486,0.00000180877,1.05486,0.00000180877C0.767881,-0.000472054,0.522571,0.0921611,0.319182,0.278031C0.115807,0.463915,0.0138534,0.691728,0.0133646,0.961569C0.0133646,0.961569,0.0000018748,8.17939,0.0000018748,8.17939C-0.000502091,8.44928,0.100597,8.67761,0.303283,8.86403C0.50597,9.05044,0.750945,9.14403,1.03795,9.14453C1.03795,9.14453,3.88877,9.14911,3.88877,9.14911C3.88877,9.14911,6.46829,11.5965,6.46829,11.5965C6.51736,11.6431,6.58185,11.6665,6.66096,11.6667C6.68093,11.6667,6.70065,11.6622,6.72037,11.6531C6.72037,11.6531,6.83926,11.5972,6.83926,11.5972C6.83926,11.5972,9.42756,9.15819,9.42756,9.15819C9.42756,9.15819,12.2784,9.16286,12.2784,9.16286C12.5654,9.16336,12.8107,9.07061,13.0141,8.88486C13.2175,8.69911,13.3195,8.47102,13.3199,8.20117C13.3199,8.20117,13.3333,0.98337,13.3333,0.98337C13.3338,0.713526,13.2327,0.485367,13.0301,0.298823C12.8274,0.112293,12.5824,0.0188416,12.2954,0.0183821C12.2954,0.0183821,12.2948,0.0183821,12.2948,0.0183821C12.2948,0.0183821,12.2948,0.0183964,12.2948,0.0183964C12.2948,0.0183964,12.2948,0.0183964,12.2948,0.0183964ZM2.69419,4.56104C2.69461,4.33294,2.78164,4.1375,2.9553,3.97491C3.12865,3.81222,3.33452,3.73106,3.57212,3.73145C3.67095,3.73162,3.76516,3.74585,3.8542,3.77393C3.94297,3.80211,4.02471,3.84184,4.09912,3.89314C4.17327,3.94454,4.23768,4.00505,4.29182,4.07485C4.34569,4.14461,4.38766,4.2216,4.41776,4.30569C4.44756,4.38963,4.46224,4.47826,4.46181,4.57116C4.46117,4.91539,4.29252,5.16174,3.9553,5.31007C3.83641,5.36587,3.70756,5.39371,3.56878,5.39349C3.33146,5.3931,3.12587,5.31127,2.95313,5.14813C2.78008,4.98487,2.69376,4.78914,2.69419,4.56104C2.69419,4.56104,2.69419,4.56104,2.69419,4.56104ZM5.78258,4.57333C5.78288,4.41516,5.82284,4.2732,5.90244,4.14766C5.9815,4.02213,6.08834,3.92216,6.22213,3.84799C6.35591,3.77369,6.50446,3.73674,6.66807,3.73702C6.83142,3.73728,6.97987,3.77471,7.11336,3.84944C7.24714,3.92417,7.35334,4.02437,7.4322,4.15016C7.51108,4.27596,7.55051,4.4179,7.55022,4.5762C7.54981,4.79961,7.46277,4.99251,7.28915,5.15521C7.11551,5.31779,6.90747,5.39893,6.66501,5.39853C6.42228,5.39814,6.21455,5.31631,6.04153,5.15317C5.86846,4.98993,5.78218,4.7966,5.78258,4.57333C5.78258,4.57333,5.78258,4.57333,5.78258,4.57333ZM8.90098,4.5712C8.90139,4.3431,8.98848,4.14765,9.16206,3.98507C9.33573,3.82238,9.54131,3.74123,9.77889,3.74162C9.94681,3.74189,10.098,3.77945,10.2315,3.85418C10.3651,3.92878,10.4712,4.0291,10.5501,4.1549C10.6292,4.28069,10.6684,4.42265,10.6681,4.58081C10.6676,4.80422,10.5806,4.99714,10.4073,5.15983C10.2336,5.3224,10.0256,5.40356,9.78289,5.40316C9.54014,5.40288,9.33239,5.32105,9.15939,5.15778C8.98639,4.99451,8.90031,4.79891,8.90073,4.57081C8.90073,4.57081,8.90098,4.5712,8.90098,4.5712C8.90098,4.5712,8.90098,4.5712,8.90098,4.5712Z" fill="#818387" fill-opacity="1"/></g></svg>