<svg xmlns="http://www.w3.org/2000/svg" xmlns:xlink="http://www.w3.org/1999/xlink" fill="none" version="1.1" width="13.33332633972168" height="11.66670036315918" viewBox="0 0 13.33332633972168 11.66670036315918"><g><path d="M9.42933,1.34615C10.1139,1.34615,10.7599,1.61838,11.2445,2.11197C12.2535,3.13804,12.2535,4.80728,11.2445,5.83186C11.2445,5.83186,6.94893,10.2009,6.94893,10.2009C6.85262,10.2996,6.74297,10.3205,6.6674,10.3205C6.59184,10.3205,6.48367,10.2996,6.38587,10.2009C6.38587,10.2009,2.09035,5.83186,2.09035,5.83186C1.08129,4.80578,1.08129,3.13655,2.09035,2.11197C2.57636,1.61838,3.22091,1.34615,3.90546,1.34615C4.59002,1.34615,5.23606,1.61838,5.72058,2.11197C5.72058,2.11197,6.6674,3.07373,6.6674,3.07373C6.6674,3.07373,7.61423,2.11197,7.61423,2.11197C8.09875,1.61838,8.74475,1.34615,9.42933,1.34615C9.42933,1.34615,9.42933,1.34615,9.42933,1.34615ZM9.42933,0C8.42916,0,7.4305,0.387394,6.6674,1.16368C5.90431,0.387394,4.90563,0,3.90546,0C2.9053,0,1.90662,0.387394,1.14352,1.16368C-0.381175,2.71475,-0.381175,5.22907,1.14352,6.78164C1.14352,6.78164,5.43906,11.1507,5.43906,11.1507C5.77836,11.4947,6.22289,11.6667,6.6674,11.6667C7.11192,11.6667,7.55644,11.4947,7.89427,11.1492C7.89427,11.1492,12.1898,6.78015,12.1898,6.78015C13.7145,5.22907,13.7145,2.71475,12.1898,1.16219C11.4282,0.387394,10.4295,0,9.42933,0C9.42933,0,9.42933,0,9.42933,0C9.42933,0,9.42933,0,9.42933,0Z" fill="#818387" fill-opacity="1"/></g></svg>