<svg xmlns="http://www.w3.org/2000/svg" xmlns:xlink="http://www.w3.org/1999/xlink" fill="none" version="1.1" width="48" height="48" viewBox="0 0 48 48"><defs><clipPath id="master_svg0_0_196"><rect x="0" y="0" width="48" height="48" rx="0"/></clipPath></defs><g clip-path="url(#master_svg0_0_196)"><g><path d="M24,0C10.745,0,0,10.745,0,24C0,37.255,10.745,48,24,48C37.255,48,48,37.255,48,24C48,10.745,37.255,0,24,0C24,0,24,0,24,0Z" fill="#E8CDA7" fill-opacity="1"/></g><g transform="matrix(0,1,-1,0,49.3792724609375,-17.1595458984375)"><path d="M39.4712091796875,17.03764728125C40.2568491796875,15.80060328125,42.0621691796875,15.80060128125,42.8478091796875,17.03764728125C42.8478091796875,17.03764728125,48.7347091796875,26.307063281250002,48.7347091796875,26.307063281250002C49.580309179687504,27.63856328125,48.6237091796875,29.379263281249997,47.0464091796875,29.379263281249997C47.0464091796875,29.379263281249997,35.2726491796875,29.379263281249997,35.2726491796875,29.379263281249997C33.6952911796875,29.379263281249997,32.7387111796875,27.63856328125,33.5843511796875,26.307063281250002C33.5843511796875,26.307063281250002,39.4712091796875,17.03764728125,39.4712091796875,17.03764728125C39.4712091796875,17.03764728125,39.4712091796875,17.03764728125,39.4712091796875,17.03764728125Z" fill="#1A1D25" fill-opacity="1"/></g></g></svg>