<svg xmlns="http://www.w3.org/2000/svg" xmlns:xlink="http://www.w3.org/1999/xlink" fill="none" version="1.1" width="13.33329963684082" height="12.5" viewBox="0 0 13.33329963684082 12.5"><g><path d="M0,1.9C0,1.9,0,1.47142,0,1.47142C0,0.662185,0.667088,0.000840325,1.48148,0.000840325C1.48148,0.000840325,4.65607,0.000840325,4.65607,0.000840325C4.65607,0.000840325,4.65607,1.47059,4.65607,1.47059C4.65607,1.47059,1.48148,1.47059,1.48148,1.47059C1.48148,1.47059,1.48148,11.0286,1.48148,11.0286C1.48148,11.0286,11.8518,11.0286,11.8518,11.0286C11.8518,11.0286,11.8518,8.40333,11.8518,8.40333C11.8518,8.40333,13.3333,8.40333,13.3333,8.40333C13.3333,8.40333,13.3333,11.0294,13.3333,11.0294C13.3333,11.8387,12.6662,12.5,11.8518,12.5C11.8518,12.5,1.48148,12.5,1.48148,12.5C0.667088,12.5,0,11.8387,0,11.0294C0,11.0294,0,1.9,0,1.9C0,1.9,0,1.9,0,1.9ZM11.7909,2.51177C11.7909,2.51177,11.796,5.19916,11.796,5.19916C11.796,5.19916,13.2732,5.19916,13.2732,5.19916C13.2732,5.19916,13.2732,0,13.2732,0C13.2732,0,8.03554,0,8.03554,0C8.03554,0,8.03554,1.46638,8.03554,1.46638C8.03554,1.46638,10.7428,1.47142,10.7428,1.47142C10.7428,1.47142,5.67787,6.49916,5.67787,6.49916C5.67787,6.49916,6.72591,7.5395,6.72591,7.5395C6.72591,7.5395,11.7909,2.51177,11.7909,2.51177C11.7909,2.51177,11.7909,2.51177,11.7909,2.51177Z" fill="#818387" fill-opacity="1"/></g></svg>