<svg xmlns="http://www.w3.org/2000/svg" xmlns:xlink="http://www.w3.org/1999/xlink" fill="none" version="1.1" width="20" height="20" viewBox="0 0 20 20"><defs><clipPath id="master_svg0_0_223"><rect x="0" y="0" width="20" height="20" rx="0"/></clipPath></defs><g clip-path="url(#master_svg0_0_223)"><g><path d="M15.329133492279052,5.441336507720948C15.329133492279052,5.441336507720948,15.316833492279052,12.073226507720946,15.316833492279052,12.073226507720946C15.316833492279052,12.073226507720946,12.762723492279052,12.069046507720948,12.762723492279052,12.069046507720948C12.584563492279052,12.068746507720947,12.413563492279053,12.100976507720947,12.250393492279052,12.165926507720947C12.087143492279052,12.230906507720947,11.940983492279052,12.323846507720948,11.811643492279053,12.444466507720946C11.811643492279053,12.444466507720946,9.996873492279054,14.144946507720947,9.996873492279054,14.144946507720947C9.996873492279054,14.144946507720947,8.173533492279052,12.438506507720946,8.173533492279052,12.438506507720946C8.114263492279052,12.373176507720947,8.047423492279052,12.317216507720948,7.973523492279052,12.270626507720948C7.899363492279052,12.224076507720948,7.822743492279053,12.186876507720948,7.743693492279053,12.158556507720947C7.6643734922790525,12.130506507720948,7.5804534922790525,12.107016507720946,7.491393492279053,12.088596507720947C7.402613492279053,12.069916507720947,7.313263492279052,12.060376507720946,7.223873492279052,12.059986507720946C7.223873492279052,12.059986507720946,4.670033492279053,12.055796507720947,4.670033492279053,12.055796507720947C4.670033492279053,12.055796507720947,4.682323492279052,5.423906507720947,4.682323492279052,5.423906507720947C4.682323492279052,5.423906507720947,15.328533492279053,5.4413165077209475,15.328533492279053,5.4413165077209475C15.328533492279053,5.4413165077209475,15.329133492279052,5.441336507720948,15.329133492279052,5.441336507720948C15.329133492279052,5.441336507720948,15.329133492279052,5.441336507720948,15.329133492279052,5.441336507720948ZM15.628133492279053,4.185062907720948C15.628133492279053,4.185062907720948,4.388193492279052,4.166668316490947,4.388193492279052,4.166668316490947C4.101214492279053,4.166194453720947,3.855904492279053,4.2588276077209475,3.652515492279053,4.444697507720948C3.449140492279053,4.630581507720947,3.3471868922790526,4.858394507720948,3.346698092279053,5.128235507720947C3.346698092279053,5.128235507720947,3.333335367079053,12.346056507720947,3.333335367079053,12.346056507720947C3.3328314012790528,12.615946507720947,3.433930492279053,12.844276507720947,3.6366164922790527,13.030696507720947C3.8393034922790528,13.217106507720947,4.0842784922790525,13.310696507720948,4.371283492279053,13.311196507720947C4.371283492279053,13.311196507720947,7.222103492279053,13.315776507720948,7.222103492279053,13.315776507720948C7.222103492279053,13.315776507720948,9.801623492279052,15.763166507720948,9.801623492279052,15.763166507720948C9.850693492279053,15.809766507720948,9.915183492279052,15.833166507720946,9.994293492279052,15.833366507720948C10.014263492279053,15.833366507720948,10.033983492279052,15.828866507720948,10.053703492279052,15.819766507720948C10.053703492279052,15.819766507720948,10.172593492279052,15.763866507720948,10.172593492279052,15.763866507720948C10.172593492279052,15.763866507720948,12.760893492279052,13.324856507720947,12.760893492279052,13.324856507720947C12.760893492279052,13.324856507720947,15.611733492279052,13.329526507720947,15.611733492279052,13.329526507720947C15.898733492279053,13.330026507720948,16.144033492279053,13.237276507720948,16.347433492279052,13.051526507720947C16.550833492279054,12.865776507720946,16.65283349227905,12.637686507720947,16.653233492279053,12.367836507720947C16.653233492279053,12.367836507720947,16.666633492279054,5.150036507720947,16.666633492279054,5.150036507720947C16.667133492279053,4.880192507720947,16.566033492279054,4.652033507720947,16.36343349227905,4.465489507720947C16.160733492279054,4.2789595077209475,15.915733492279053,4.185508107720947,15.628733492279054,4.1850486077209474C15.628733492279054,4.1850486077209474,15.628133492279053,4.1850486077209474,15.628133492279053,4.1850486077209474C15.628133492279053,4.1850486077209474,15.628133492279053,4.185062907720948,15.628133492279053,4.185062907720948C15.628133492279053,4.185062907720948,15.628133492279053,4.185062907720948,15.628133492279053,4.185062907720948ZM6.027523492279053,8.727706507720947C6.027943492279053,8.499606507720948,6.114973492279052,8.304166507720947,6.288633492279052,8.141576507720947C6.461983492279053,7.978886507720947,6.667853492279052,7.897726507720947,6.905453492279053,7.898116507720948C7.004283492279052,7.898286507720947,7.098493492279053,7.912516507720947,7.187533492279053,7.940596507720947C7.276303492279053,7.968776507720947,7.3580434922790525,8.008506507720947,7.432453492279053,8.059806507720946C7.506603492279052,8.111206507720947,7.571013492279053,8.171716507720948,7.625153492279053,8.241516507720947C7.679023492279053,8.311276507720947,7.720993492279053,8.388266507720946,7.751093492279053,8.472356507720948C7.780893492279053,8.556296507720948,7.795573492279053,8.644926507720946,7.795143492279053,8.737826507720946C7.794503492279053,9.082056507720948,7.625853492279052,9.328406507720947,7.288633492279052,9.476736507720947C7.169743492279053,9.532536507720948,7.040893492279053,9.560376507720946,6.902113492279053,9.560156507720947C6.664793492279053,9.559766507720948,6.459203492279053,9.477936507720948,6.2864634922790525,9.314796507720947C6.113413492279053,9.151536507720948,6.027093492279053,8.955806507720947,6.027523492279053,8.727706507720947C6.027523492279053,8.727706507720947,6.027523492279053,8.727706507720947,6.027523492279053,8.727706507720947ZM9.115913492279052,8.739996507720948C9.116213492279051,8.581826507720947,9.156173492279052,8.439866507720946,9.235773492279053,8.314326507720947C9.314833492279053,8.188796507720948,9.421673492279051,8.088826507720947,9.555463492279053,8.014656507720947C9.689243492279052,7.9403565077209475,9.837793492279053,7.903406507720947,10.001403492279053,7.903686507720947C10.164753492279052,7.903946507720947,10.313203492279053,7.941376507720947,10.446693492279053,8.016106507720947C10.580473492279053,8.090836507720947,10.686673492279052,8.191036507720948,10.765533492279053,8.316826507720947C10.844413492279052,8.442626507720949,10.883843492279052,8.584566507720947,10.883553492279052,8.742866507720947C10.883143492279054,8.966276507720949,10.796103492279052,9.159176507720947,10.622483492279052,9.321876507720948C10.448843492279053,9.484456507720946,10.240803492279053,9.565596507720947,9.998343492279052,9.565196507720948C9.755613492279053,9.564806507720947,9.547883492279052,9.482976507720947,9.374863492279053,9.319836507720947C9.201793492279052,9.156596507720948,9.115513492279053,8.963266507720947,9.115913492279052,8.739996507720948C9.115913492279052,8.739996507720948,9.115913492279052,8.739996507720948,9.115913492279052,8.739996507720948ZM12.234313492279053,8.737866507720948C12.234723492279052,8.509766507720947,12.321813492279052,8.314316507720946,12.495393492279053,8.151736507720948C12.669063492279053,7.989046507720947,12.874643492279052,7.907896507720947,13.112223492279053,7.908286507720947C13.280143492279052,7.908556507720947,13.431333492279053,7.946116507720948,13.564833492279053,8.020846507720947C13.698433492279053,8.095446507720947,13.804533492279052,8.195766507720947,13.883433492279053,8.321566507720947C13.962533492279054,8.447356507720947,14.001733492279053,8.589316507720948,14.001433492279054,8.747476507720947C14.000933492279053,8.970886507720948,13.913933492279053,9.163806507720947,13.740633492279052,9.326496507720947C13.566933492279052,9.489066507720947,13.358933492279053,9.570226507720946,13.116223492279053,9.569826507720947C12.873473492279052,9.569546507720947,12.665723492279053,9.487716507720947,12.492723492279053,9.324446507720946C12.319723492279053,9.161176507720947,12.233643492279052,8.965576507720947,12.234063492279052,8.737476507720947C12.234063492279052,8.737476507720947,12.234313492279053,8.737866507720948,12.234313492279053,8.737866507720948C12.234313492279053,8.737866507720948,12.234313492279053,8.737866507720948,12.234313492279053,8.737866507720948Z" fill="#818387" fill-opacity="1"/></g></g></svg>